<mxfile host="Electron" modified="2023-05-25T12:48:31.584Z" agent="Mozilla/5.0 (Windows NT 10.0; Win64; x64) AppleWebKit/537.36 (KHTML, like Gecko) draw.io/21.2.8 Chrome/112.0.5615.165 Electron/24.2.0 Safari/537.36" etag="WmMXKFMzNH8__JrrGypr" version="21.2.8" type="device" pages="10">
  <diagram id="z6ilIcbmZor8qnZGDBh0" name="Multi-instance">
    <mxGraphModel dx="2074" dy="1204" grid="1" gridSize="10" guides="1" tooltips="1" connect="1" arrows="1" fold="1" page="1" pageScale="1" pageWidth="850" pageHeight="1100" math="0" shadow="0">
      <root>
        <mxCell id="0" />
        <mxCell id="1" parent="0" />
        <mxCell id="m07Qos_p-IZqg7xTddig-4" value="SERVER 1" style="rounded=1;whiteSpace=wrap;html=1;verticalAlign=top;" parent="1" vertex="1">
          <mxGeometry x="90" y="300" width="120" height="300" as="geometry" />
        </mxCell>
        <mxCell id="m07Qos_p-IZqg7xTddig-2" value="ACE" style="image;html=1;image=img/lib/clip_art/computers/Virtual_Application_128x128.png" parent="1" vertex="1">
          <mxGeometry x="100" y="340" width="80" height="80" as="geometry" />
        </mxCell>
        <mxCell id="m07Qos_p-IZqg7xTddig-3" value="MQ" style="image;html=1;image=img/lib/clip_art/computers/Virtual_Application_128x128.png" parent="1" vertex="1">
          <mxGeometry x="100" y="460" width="80" height="80" as="geometry" />
        </mxCell>
        <mxCell id="m07Qos_p-IZqg7xTddig-5" value="SERVER 2" style="rounded=1;whiteSpace=wrap;html=1;verticalAlign=top;dashed=1;" parent="1" vertex="1">
          <mxGeometry x="420" y="300" width="120" height="300" as="geometry" />
        </mxCell>
        <mxCell id="0mcUsKKX2uJhM09IEZXJ-3" style="edgeStyle=orthogonalEdgeStyle;rounded=0;orthogonalLoop=1;jettySize=auto;html=1;entryX=0;entryY=0.5;entryDx=0;entryDy=0;exitX=0;exitY=0.5;exitDx=0;exitDy=0;strokeWidth=2;fillColor=#dae8fc;strokeColor=#6c8ebf;dashed=1;" parent="1" source="m07Qos_p-IZqg7xTddig-6" target="m07Qos_p-IZqg7xTddig-7" edge="1">
          <mxGeometry relative="1" as="geometry">
            <Array as="points">
              <mxPoint x="430" y="380" />
              <mxPoint x="430" y="500" />
            </Array>
          </mxGeometry>
        </mxCell>
        <mxCell id="m07Qos_p-IZqg7xTddig-6" value="ACE" style="image;html=1;image=img/lib/clip_art/computers/Virtual_Application_128x128.png" parent="1" vertex="1">
          <mxGeometry x="450" y="340" width="80" height="80" as="geometry" />
        </mxCell>
        <mxCell id="m07Qos_p-IZqg7xTddig-7" value="MQ" style="image;html=1;image=img/lib/clip_art/computers/Virtual_Application_128x128.png" parent="1" vertex="1">
          <mxGeometry x="450" y="460" width="80" height="80" as="geometry" />
        </mxCell>
        <mxCell id="m07Qos_p-IZqg7xTddig-8" value="NFS / NAS" style="fontColor=#0066CC;verticalAlign=top;verticalLabelPosition=bottom;labelPosition=center;align=center;html=1;outlineConnect=0;fillColor=#CCCCCC;strokeColor=#6881B3;gradientColor=none;gradientDirection=north;strokeWidth=2;shape=mxgraph.networks.nas_filer;" parent="1" vertex="1">
          <mxGeometry x="260" y="640" width="100" height="35" as="geometry" />
        </mxCell>
        <mxCell id="m07Qos_p-IZqg7xTddig-9" value="" style="endArrow=classic;html=1;rounded=0;exitX=1;exitY=0.5;exitDx=0;exitDy=0;entryX=0;entryY=1;entryDx=0;entryDy=0;entryPerimeter=0;" parent="1" source="m07Qos_p-IZqg7xTddig-4" target="m07Qos_p-IZqg7xTddig-8" edge="1">
          <mxGeometry width="50" height="50" relative="1" as="geometry">
            <mxPoint x="210" y="410" as="sourcePoint" />
            <mxPoint x="260" y="360" as="targetPoint" />
          </mxGeometry>
        </mxCell>
        <mxCell id="m07Qos_p-IZqg7xTddig-10" value="" style="endArrow=classic;html=1;rounded=0;exitX=0;exitY=0.5;exitDx=0;exitDy=0;entryX=1;entryY=1;entryDx=0;entryDy=0;entryPerimeter=0;dashed=1;" parent="1" source="m07Qos_p-IZqg7xTddig-5" target="m07Qos_p-IZqg7xTddig-8" edge="1">
          <mxGeometry width="50" height="50" relative="1" as="geometry">
            <mxPoint x="320" y="610" as="sourcePoint" />
            <mxPoint x="425" y="670" as="targetPoint" />
          </mxGeometry>
        </mxCell>
        <mxCell id="0mcUsKKX2uJhM09IEZXJ-2" value="" style="endArrow=classic;html=1;rounded=0;exitX=1;exitY=0.5;exitDx=0;exitDy=0;entryX=1;entryY=0.5;entryDx=0;entryDy=0;edgeStyle=orthogonalEdgeStyle;strokeWidth=2;fillColor=#dae8fc;strokeColor=#6c8ebf;" parent="1" source="m07Qos_p-IZqg7xTddig-2" target="m07Qos_p-IZqg7xTddig-3" edge="1">
          <mxGeometry width="50" height="50" relative="1" as="geometry">
            <mxPoint x="180" y="430" as="sourcePoint" />
            <mxPoint x="230" y="380" as="targetPoint" />
            <Array as="points">
              <mxPoint x="200" y="380" />
              <mxPoint x="200" y="500" />
            </Array>
          </mxGeometry>
        </mxCell>
        <mxCell id="YuPeFK3KpVsB8mmY34_f-1" value="Key topics&lt;br&gt;--------------&lt;br&gt;Simple setup&lt;br&gt;&lt;br&gt;ACE and MQ in binding mode&lt;br&gt;&amp;nbsp;- Trusted relationship&lt;br&gt;&lt;br&gt;Not actually HA, but automatic failover and recovery (once)&lt;br&gt;&amp;nbsp;- Still only one instance running at the same time&lt;br&gt;&lt;br&gt;Configuration and data stored on network share&lt;br&gt;&amp;nbsp;- Hard dependency on network and nfs&lt;br&gt;&amp;nbsp;- single deploy of ace applications and mq config&lt;br&gt;&lt;br&gt;Loadbalancer needs to follow failover&lt;br&gt;&amp;nbsp;- Automated health checks&lt;br&gt;&lt;br&gt;Only licences for 1 instance are required, the other instance is covered in standby licences&lt;br&gt;&lt;br&gt;Upgrades need to be performed in quick succesion, MI works best at identical service levels&lt;br&gt;&lt;br&gt;Message order is guaranteed&lt;br&gt;&lt;br&gt;&lt;br&gt;Thoughts&lt;br&gt;-------------&lt;br&gt;After an automatic failover, manual intervention is needed to see why the instance failed over.&lt;br&gt;Unless the original issue is solved you can&#39;t switch back&lt;br&gt;&lt;br&gt;The nfs and network could prove to be a big bottleneck. &lt;br&gt;&amp;nbsp;- All ACE deployments are stored there&lt;br&gt;&amp;nbsp;- All persistent mq messages are written to the nfs, so any network and nfs latency will show in message throughput&lt;br&gt;&lt;br&gt;&lt;br&gt;Conclusion&lt;br&gt;---------------&lt;br&gt;Not a HA solution&lt;br&gt;&lt;br&gt;Only real benefit is the automated failover, keeping in mind it only works ONCE!&lt;br&gt;&lt;br&gt;MQ and ACE still very tightly coupled&lt;br&gt;&lt;br&gt;No data is lost or needs to be recovered manually&lt;br&gt;&lt;br&gt;" style="text;html=1;strokeColor=none;fillColor=none;align=left;verticalAlign=top;whiteSpace=wrap;rounded=0;dashed=1;" parent="1" vertex="1">
          <mxGeometry x="650" y="300" width="820" height="510" as="geometry" />
        </mxCell>
        <mxCell id="YuPeFK3KpVsB8mmY34_f-3" style="rounded=0;jumpStyle=arc;orthogonalLoop=1;jettySize=auto;html=1;strokeWidth=2;entryX=0.5;entryY=0;entryDx=0;entryDy=0;" parent="1" source="YuPeFK3KpVsB8mmY34_f-5" target="m07Qos_p-IZqg7xTddig-4" edge="1">
          <mxGeometry relative="1" as="geometry">
            <mxPoint x="266.0139442231075" y="219" as="sourcePoint" />
          </mxGeometry>
        </mxCell>
        <mxCell id="YuPeFK3KpVsB8mmY34_f-4" style="rounded=0;jumpStyle=arc;orthogonalLoop=1;jettySize=auto;html=1;entryX=0.5;entryY=0;entryDx=0;entryDy=0;strokeWidth=2;" parent="1" source="YuPeFK3KpVsB8mmY34_f-5" target="m07Qos_p-IZqg7xTddig-5" edge="1">
          <mxGeometry relative="1" as="geometry">
            <mxPoint x="383.0258964143427" y="219" as="sourcePoint" />
          </mxGeometry>
        </mxCell>
        <mxCell id="YuPeFK3KpVsB8mmY34_f-5" value="" style="fontColor=#0066CC;verticalAlign=top;verticalLabelPosition=bottom;labelPosition=center;align=center;html=1;outlineConnect=0;fillColor=#CCCCCC;strokeColor=#6881B3;gradientColor=none;gradientDirection=north;strokeWidth=2;shape=mxgraph.networks.load_balancer;dashed=1;" parent="1" vertex="1">
          <mxGeometry x="220" y="160" width="210" height="60" as="geometry" />
        </mxCell>
        <mxCell id="F_D-6Vk6k4Dv_0nc7zoI-1" value="Multi instance" style="text;html=1;strokeColor=#d79b00;fillColor=#ffe6cc;align=center;verticalAlign=middle;whiteSpace=wrap;rounded=0;fontSize=27;" vertex="1" parent="1">
          <mxGeometry x="30" y="30" width="750" height="60" as="geometry" />
        </mxCell>
      </root>
    </mxGraphModel>
  </diagram>
  <diagram id="ZGqRj5B8NFQdkC3KFlQ9" name="Cross Multi-Instance">
    <mxGraphModel dx="2074" dy="2304" grid="1" gridSize="10" guides="1" tooltips="1" connect="1" arrows="1" fold="1" page="1" pageScale="1" pageWidth="850" pageHeight="1100" math="0" shadow="0">
      <root>
        <mxCell id="0" />
        <mxCell id="1" parent="0" />
        <mxCell id="ZMwq8yXLuUMRJJ1eak_q-1" value="SERVER 1" style="rounded=1;whiteSpace=wrap;html=1;verticalAlign=top;" parent="1" vertex="1">
          <mxGeometry x="30" y="-800" width="140" height="530" as="geometry" />
        </mxCell>
        <mxCell id="ZMwq8yXLuUMRJJ1eak_q-4" value="SERVER 2" style="rounded=1;whiteSpace=wrap;html=1;verticalAlign=top;" parent="1" vertex="1">
          <mxGeometry x="380" y="-800" width="140" height="530" as="geometry" />
        </mxCell>
        <mxCell id="KJHLIhyvscObrq-niZwq-2" value="Instance 1" style="rounded=1;whiteSpace=wrap;html=1;verticalAlign=top;dashed=1;" parent="1" vertex="1">
          <mxGeometry x="390" y="-770" width="120" height="240" as="geometry" />
        </mxCell>
        <mxCell id="KJHLIhyvscObrq-niZwq-4" value="Instance 2" style="rounded=1;whiteSpace=wrap;html=1;verticalAlign=top;fillColor=none;strokeColor=#9673a6;" parent="1" vertex="1">
          <mxGeometry x="390" y="-510" width="120" height="230" as="geometry" />
        </mxCell>
        <mxCell id="KJHLIhyvscObrq-niZwq-1" value="Instance 1" style="rounded=1;whiteSpace=wrap;html=1;verticalAlign=top;" parent="1" vertex="1">
          <mxGeometry x="40" y="-770" width="120" height="240" as="geometry" />
        </mxCell>
        <mxCell id="KJHLIhyvscObrq-niZwq-3" value="Instance 2" style="rounded=1;whiteSpace=wrap;html=1;verticalAlign=top;dashed=1;fillColor=none;strokeColor=#9673a6;" parent="1" vertex="1">
          <mxGeometry x="40" y="-510" width="120" height="230" as="geometry" />
        </mxCell>
        <mxCell id="hjZlAbtiZN_TDP16pGf9-2" style="edgeStyle=orthogonalEdgeStyle;rounded=0;orthogonalLoop=1;jettySize=auto;html=1;entryX=1;entryY=0.5;entryDx=0;entryDy=0;strokeWidth=2;exitX=1;exitY=0.5;exitDx=0;exitDy=0;fillColor=#dae8fc;strokeColor=#6c8ebf;dashed=1;" parent="1" source="ZMwq8yXLuUMRJJ1eak_q-2" target="ZMwq8yXLuUMRJJ1eak_q-3" edge="1">
          <mxGeometry relative="1" as="geometry" />
        </mxCell>
        <mxCell id="ZMwq8yXLuUMRJJ1eak_q-2" value="ACE" style="image;html=1;image=img/lib/clip_art/computers/Virtual_Application_128x128.png" parent="1" vertex="1">
          <mxGeometry x="50" y="-490" width="80" height="80" as="geometry" />
        </mxCell>
        <mxCell id="ZMwq8yXLuUMRJJ1eak_q-3" value="MQ" style="image;html=1;image=img/lib/clip_art/computers/Virtual_Application_128x128.png" parent="1" vertex="1">
          <mxGeometry x="50" y="-390" width="80" height="80" as="geometry" />
        </mxCell>
        <mxCell id="hjZlAbtiZN_TDP16pGf9-4" style="edgeStyle=orthogonalEdgeStyle;rounded=0;orthogonalLoop=1;jettySize=auto;html=1;entryX=0;entryY=0.5;entryDx=0;entryDy=0;strokeWidth=2;exitX=0;exitY=0.5;exitDx=0;exitDy=0;fillColor=#dae8fc;strokeColor=#6c8ebf;" parent="1" source="ZMwq8yXLuUMRJJ1eak_q-5" target="ZMwq8yXLuUMRJJ1eak_q-6" edge="1">
          <mxGeometry relative="1" as="geometry" />
        </mxCell>
        <mxCell id="ZMwq8yXLuUMRJJ1eak_q-5" value="ACE" style="image;html=1;image=img/lib/clip_art/computers/Virtual_Application_128x128.png" parent="1" vertex="1">
          <mxGeometry x="420" y="-490" width="80" height="80" as="geometry" />
        </mxCell>
        <mxCell id="ZMwq8yXLuUMRJJ1eak_q-6" value="MQ" style="image;html=1;image=img/lib/clip_art/computers/Virtual_Application_128x128.png" parent="1" vertex="1">
          <mxGeometry x="420" y="-390" width="80" height="80" as="geometry" />
        </mxCell>
        <mxCell id="ZMwq8yXLuUMRJJ1eak_q-7" value="NFS / NAS" style="fontColor=#0066CC;verticalAlign=top;verticalLabelPosition=bottom;labelPosition=center;align=center;html=1;outlineConnect=0;fillColor=#CCCCCC;strokeColor=#6881B3;gradientColor=none;gradientDirection=north;strokeWidth=2;shape=mxgraph.networks.nas_filer;" parent="1" vertex="1">
          <mxGeometry x="230" y="-530" width="100" height="35" as="geometry" />
        </mxCell>
        <mxCell id="ZMwq8yXLuUMRJJ1eak_q-9" value="" style="endArrow=classic;html=1;rounded=0;exitX=0;exitY=0.5;exitDx=0;exitDy=0;entryX=1;entryY=1;entryDx=0;entryDy=0;entryPerimeter=0;fillColor=#e1d5e7;strokeColor=#9673a6;" parent="1" source="KJHLIhyvscObrq-niZwq-4" target="ZMwq8yXLuUMRJJ1eak_q-7" edge="1">
          <mxGeometry width="50" height="50" relative="1" as="geometry">
            <mxPoint x="280" y="-260" as="sourcePoint" />
            <mxPoint x="385" y="-200" as="targetPoint" />
          </mxGeometry>
        </mxCell>
        <mxCell id="S1dgDsMsp8iiH-ZpFj6E-1" style="rounded=0;orthogonalLoop=1;jettySize=auto;html=1;entryX=0;entryY=0.5;entryDx=0;entryDy=0;entryPerimeter=0;exitX=1;exitY=0.5;exitDx=0;exitDy=0;" parent="1" source="KJHLIhyvscObrq-niZwq-1" target="ZMwq8yXLuUMRJJ1eak_q-7" edge="1">
          <mxGeometry relative="1" as="geometry" />
        </mxCell>
        <mxCell id="S1dgDsMsp8iiH-ZpFj6E-3" style="edgeStyle=none;rounded=0;orthogonalLoop=1;jettySize=auto;html=1;entryX=1;entryY=0.5;entryDx=0;entryDy=0;entryPerimeter=0;dashed=1;exitX=0;exitY=0.5;exitDx=0;exitDy=0;" parent="1" source="KJHLIhyvscObrq-niZwq-2" target="ZMwq8yXLuUMRJJ1eak_q-7" edge="1">
          <mxGeometry relative="1" as="geometry" />
        </mxCell>
        <mxCell id="S1dgDsMsp8iiH-ZpFj6E-2" style="edgeStyle=none;rounded=0;orthogonalLoop=1;jettySize=auto;html=1;entryX=0;entryY=1;entryDx=0;entryDy=0;entryPerimeter=0;dashed=1;exitX=1;exitY=0.5;exitDx=0;exitDy=0;fillColor=#e1d5e7;strokeColor=#9673a6;" parent="1" source="KJHLIhyvscObrq-niZwq-3" target="ZMwq8yXLuUMRJJ1eak_q-7" edge="1">
          <mxGeometry relative="1" as="geometry" />
        </mxCell>
        <mxCell id="hjZlAbtiZN_TDP16pGf9-1" style="edgeStyle=orthogonalEdgeStyle;rounded=0;orthogonalLoop=1;jettySize=auto;html=1;entryX=1;entryY=0.5;entryDx=0;entryDy=0;strokeWidth=2;exitX=1;exitY=0.5;exitDx=0;exitDy=0;fillColor=#dae8fc;strokeColor=#6c8ebf;" parent="1" source="S1dgDsMsp8iiH-ZpFj6E-4" target="S1dgDsMsp8iiH-ZpFj6E-5" edge="1">
          <mxGeometry relative="1" as="geometry">
            <Array as="points">
              <mxPoint x="150" y="-700" />
              <mxPoint x="150" y="-600" />
            </Array>
          </mxGeometry>
        </mxCell>
        <mxCell id="S1dgDsMsp8iiH-ZpFj6E-4" value="ACE" style="image;html=1;image=img/lib/clip_art/computers/Virtual_Application_128x128.png" parent="1" vertex="1">
          <mxGeometry x="50" y="-740" width="80" height="80" as="geometry" />
        </mxCell>
        <mxCell id="S1dgDsMsp8iiH-ZpFj6E-5" value="MQ" style="image;html=1;image=img/lib/clip_art/computers/Virtual_Application_128x128.png" parent="1" vertex="1">
          <mxGeometry x="50" y="-640" width="80" height="80" as="geometry" />
        </mxCell>
        <mxCell id="hjZlAbtiZN_TDP16pGf9-3" style="edgeStyle=orthogonalEdgeStyle;rounded=0;orthogonalLoop=1;jettySize=auto;html=1;entryX=0;entryY=0.5;entryDx=0;entryDy=0;strokeWidth=2;exitX=0;exitY=0.5;exitDx=0;exitDy=0;fillColor=#dae8fc;strokeColor=#6c8ebf;dashed=1;" parent="1" source="S1dgDsMsp8iiH-ZpFj6E-6" target="S1dgDsMsp8iiH-ZpFj6E-7" edge="1">
          <mxGeometry relative="1" as="geometry" />
        </mxCell>
        <mxCell id="S1dgDsMsp8iiH-ZpFj6E-6" value="ACE" style="image;html=1;image=img/lib/clip_art/computers/Virtual_Application_128x128.png" parent="1" vertex="1">
          <mxGeometry x="420" y="-740" width="80" height="80" as="geometry" />
        </mxCell>
        <mxCell id="S1dgDsMsp8iiH-ZpFj6E-7" value="MQ" style="image;html=1;image=img/lib/clip_art/computers/Virtual_Application_128x128.png" parent="1" vertex="1">
          <mxGeometry x="420" y="-640" width="80" height="80" as="geometry" />
        </mxCell>
        <mxCell id="dx2nvBfBGqbiB53Rb7g6-1" value="Key topics&lt;br style=&quot;border-color: var(--border-color);&quot;&gt;--------------&lt;br&gt;Simple setup&lt;br&gt;&lt;br&gt;ACE and MQ in binding mode&lt;br&gt;&lt;span style=&quot;&quot;&gt;&lt;/span&gt;&lt;span style=&quot;&quot;&gt;&lt;/span&gt;&lt;span style=&quot;&quot;&gt;&lt;/span&gt;&lt;span style=&quot;&quot;&gt;&lt;/span&gt;&amp;nbsp;- Trusted relationship&lt;br&gt;&lt;br&gt;Full HA, with automatic failover and recovery (once per instance, but in reality only once)&lt;br&gt;&lt;span style=&quot;&quot;&gt; &lt;/span&gt;&amp;nbsp;- double deploy of ace flows and mq config&lt;br style=&quot;border-color: var(--border-color);&quot;&gt;&lt;br&gt;Configuration and data stored on network share&lt;br style=&quot;border-color: var(--border-color);&quot;&gt;&lt;span style=&quot;border-color: var(--border-color);&quot;&gt;&lt;/span&gt;&lt;span style=&quot;&quot;&gt;&lt;/span&gt;&lt;span style=&quot;&quot;&gt;&lt;/span&gt;&lt;span style=&quot;&quot;&gt;&lt;/span&gt;&amp;nbsp;- Hard dependency on network and nfs&lt;br&gt;&lt;br&gt;Loadbalancer needs to follow failover&lt;br&gt;&lt;span style=&quot;&quot;&gt;&lt;/span&gt;&lt;span style=&quot;&quot;&gt;&lt;/span&gt;&lt;span style=&quot;&quot;&gt;&lt;/span&gt;&lt;span style=&quot;&quot;&gt;&lt;/span&gt;&amp;nbsp;- Automated health checks&lt;br&gt;&lt;br&gt;Licences for both instances are required&lt;br&gt;&lt;br&gt;Both servers need to be scaled to run both instances&lt;br&gt;&amp;nbsp;- combination of workload + overhead of additional broker/mq/network/io/...&lt;br&gt;&lt;br&gt;HTTP trafic can be load balanced, but all mq traffic can be handled on the same qmgr&lt;br&gt;&lt;br&gt;Upgrades need to be performed in quick succesion, MI works best at identical service levels&lt;br&gt;&lt;br&gt;Message order can be guaranteed if the flow stays on the same isntance&lt;br&gt;&lt;br&gt;&lt;br&gt;Thoughts&lt;br style=&quot;border-color: var(--border-color);&quot;&gt;-------------&lt;br style=&quot;border-color: var(--border-color);&quot;&gt;After an automatic failover, manual intervention is needed to see why the instance failed over.&lt;br style=&quot;border-color: var(--border-color);&quot;&gt;Unless the original issue is solved you can&#39;t switch back&lt;br style=&quot;border-color: var(--border-color);&quot;&gt;&lt;br style=&quot;border-color: var(--border-color);&quot;&gt;The nfs and network could prove to be a big bottleneck.&lt;br style=&quot;border-color: var(--border-color);&quot;&gt;&lt;span style=&quot;border-color: var(--border-color);&quot;&gt;&lt;/span&gt;&amp;nbsp;- All ACE deployments are stored there&lt;br style=&quot;border-color: var(--border-color);&quot;&gt;&lt;span style=&quot;border-color: var(--border-color);&quot;&gt;&lt;/span&gt;&amp;nbsp;- All persistent mq messages are written to the nfs, so any network and nfs latency will show in message throughput&lt;br&gt;&lt;br&gt;Server1 and 2 need different listener ports, vip can take care of that transparency&lt;br&gt;&lt;br&gt;&lt;br&gt;Conclusion&lt;br&gt;---------------&lt;br&gt;HA solution&amp;nbsp;&lt;br&gt;&lt;br&gt;Automated failover, keeping in mind it only works ONCE!&lt;br&gt;&lt;br&gt;MQ and ACE still very tightly coupled&lt;br&gt;&lt;br style=&quot;border-color: var(--border-color);&quot;&gt;No data is lost or needs to be recovered manually&lt;br&gt;&lt;br&gt;Message order can be tricky for REST APIs" style="text;html=1;strokeColor=none;fillColor=none;align=left;verticalAlign=top;whiteSpace=wrap;rounded=0;dashed=1;" parent="1" vertex="1">
          <mxGeometry x="570" y="-800" width="640" height="640" as="geometry" />
        </mxCell>
        <mxCell id="VdMPsoCl0fbEOKMvxEb5-1" style="rounded=0;jumpStyle=arc;orthogonalLoop=1;jettySize=auto;html=1;strokeWidth=2;entryX=0.5;entryY=0;entryDx=0;entryDy=0;" parent="1" source="VdMPsoCl0fbEOKMvxEb5-3" target="ZMwq8yXLuUMRJJ1eak_q-1" edge="1">
          <mxGeometry relative="1" as="geometry">
            <mxPoint x="231.0139442231075" y="-891" as="sourcePoint" />
            <mxPoint x="115" y="-810" as="targetPoint" />
          </mxGeometry>
        </mxCell>
        <mxCell id="VdMPsoCl0fbEOKMvxEb5-2" style="rounded=0;jumpStyle=arc;orthogonalLoop=1;jettySize=auto;html=1;entryX=0.5;entryY=0;entryDx=0;entryDy=0;strokeWidth=2;" parent="1" source="VdMPsoCl0fbEOKMvxEb5-3" target="ZMwq8yXLuUMRJJ1eak_q-4" edge="1">
          <mxGeometry relative="1" as="geometry">
            <mxPoint x="348.0258964143427" y="-891" as="sourcePoint" />
            <mxPoint x="445" y="-810" as="targetPoint" />
          </mxGeometry>
        </mxCell>
        <mxCell id="VdMPsoCl0fbEOKMvxEb5-3" value="" style="fontColor=#0066CC;verticalAlign=top;verticalLabelPosition=bottom;labelPosition=center;align=center;html=1;outlineConnect=0;fillColor=#CCCCCC;strokeColor=#6881B3;gradientColor=none;gradientDirection=north;strokeWidth=2;shape=mxgraph.networks.load_balancer;dashed=1;" parent="1" vertex="1">
          <mxGeometry x="180" y="-940" width="210" height="60" as="geometry" />
        </mxCell>
        <mxCell id="e1TytimLbeNo9iX4g3qF-2" value="&lt;font color=&quot;#cc0000&quot;&gt;Cross&lt;/font&gt; Multi instance" style="text;html=1;strokeColor=#d79b00;fillColor=#ffe6cc;align=center;verticalAlign=middle;whiteSpace=wrap;rounded=0;fontSize=27;" vertex="1" parent="1">
          <mxGeometry x="30" y="-1070" width="750" height="60" as="geometry" />
        </mxCell>
      </root>
    </mxGraphModel>
  </diagram>
  <diagram id="4zDJ0yz9T_jenzxTkbOB" name="DA ACE &amp; MI MQ">
    <mxGraphModel dx="2074" dy="2304" grid="1" gridSize="10" guides="1" tooltips="1" connect="1" arrows="1" fold="1" page="1" pageScale="1" pageWidth="850" pageHeight="1100" math="0" shadow="0">
      <root>
        <mxCell id="0" />
        <mxCell id="1" parent="0" />
        <mxCell id="rd0AGNtnHvDlbVDW9NCl-1" value="SERVER 1" style="rounded=1;whiteSpace=wrap;html=1;verticalAlign=top;" parent="1" vertex="1">
          <mxGeometry x="30" y="-780" width="140" height="410" as="geometry" />
        </mxCell>
        <mxCell id="rd0AGNtnHvDlbVDW9NCl-2" value="SERVER 2" style="rounded=1;whiteSpace=wrap;html=1;verticalAlign=top;" parent="1" vertex="1">
          <mxGeometry x="380" y="-780" width="140" height="400" as="geometry" />
        </mxCell>
        <mxCell id="rd0AGNtnHvDlbVDW9NCl-3" value="ACE" style="image;html=1;image=img/lib/clip_art/computers/Virtual_Application_128x128.png" parent="1" vertex="1">
          <mxGeometry x="420" y="-740" width="80" height="80" as="geometry" />
        </mxCell>
        <mxCell id="rd0AGNtnHvDlbVDW9NCl-5" value="NFS / NAS" style="fontColor=#0066CC;verticalAlign=top;verticalLabelPosition=bottom;labelPosition=center;align=center;html=1;outlineConnect=0;fillColor=#CCCCCC;strokeColor=#6881B3;gradientColor=none;gradientDirection=north;strokeWidth=2;shape=mxgraph.networks.nas_filer;" parent="1" vertex="1">
          <mxGeometry x="230" y="-350" width="100" height="35" as="geometry" />
        </mxCell>
        <mxCell id="rd0AGNtnHvDlbVDW9NCl-7" style="rounded=0;orthogonalLoop=1;jettySize=auto;html=1;entryX=0;entryY=0.5;entryDx=0;entryDy=0;entryPerimeter=0;exitX=1;exitY=0.5;exitDx=0;exitDy=0;" parent="1" source="rd0AGNtnHvDlbVDW9NCl-12" target="rd0AGNtnHvDlbVDW9NCl-5" edge="1">
          <mxGeometry relative="1" as="geometry" />
        </mxCell>
        <mxCell id="rd0AGNtnHvDlbVDW9NCl-8" style="edgeStyle=none;rounded=0;orthogonalLoop=1;jettySize=auto;html=1;entryX=1;entryY=0.5;entryDx=0;entryDy=0;entryPerimeter=0;dashed=1;exitX=0;exitY=0.5;exitDx=0;exitDy=0;" parent="1" source="rd0AGNtnHvDlbVDW9NCl-15" target="rd0AGNtnHvDlbVDW9NCl-5" edge="1">
          <mxGeometry relative="1" as="geometry" />
        </mxCell>
        <mxCell id="rd0AGNtnHvDlbVDW9NCl-10" value="ACE" style="image;html=1;image=img/lib/clip_art/computers/Virtual_Application_128x128.png" parent="1" vertex="1">
          <mxGeometry x="50" y="-740" width="80" height="80" as="geometry" />
        </mxCell>
        <mxCell id="rd0AGNtnHvDlbVDW9NCl-15" value="Instance 1" style="rounded=1;whiteSpace=wrap;html=1;verticalAlign=top;dashed=1;" parent="1" vertex="1">
          <mxGeometry x="390" y="-550" width="120" height="140" as="geometry" />
        </mxCell>
        <mxCell id="rd0AGNtnHvDlbVDW9NCl-16" value="MQ" style="image;html=1;image=img/lib/clip_art/computers/Virtual_Application_128x128.png" parent="1" vertex="1">
          <mxGeometry x="420" y="-520" width="80" height="80" as="geometry" />
        </mxCell>
        <mxCell id="rd0AGNtnHvDlbVDW9NCl-12" value="Instance 1" style="rounded=1;whiteSpace=wrap;html=1;verticalAlign=top;" parent="1" vertex="1">
          <mxGeometry x="40" y="-550" width="120" height="140" as="geometry" />
        </mxCell>
        <mxCell id="rd0AGNtnHvDlbVDW9NCl-13" value="MQ" style="image;html=1;image=img/lib/clip_art/computers/Virtual_Application_128x128.png" parent="1" vertex="1">
          <mxGeometry x="50" y="-520" width="80" height="80" as="geometry" />
        </mxCell>
        <mxCell id="0wTsarcwlKku0vYo_N_W-1" style="edgeStyle=orthogonalEdgeStyle;rounded=0;jumpStyle=arc;orthogonalLoop=1;jettySize=auto;html=1;entryX=1;entryY=0.5;entryDx=0;entryDy=0;strokeWidth=2;exitX=1;exitY=0.5;exitDx=0;exitDy=0;fillColor=#dae8fc;strokeColor=#6c8ebf;" parent="1" source="rd0AGNtnHvDlbVDW9NCl-10" target="rd0AGNtnHvDlbVDW9NCl-13" edge="1">
          <mxGeometry relative="1" as="geometry">
            <Array as="points">
              <mxPoint x="190" y="-700" />
              <mxPoint x="190" y="-480" />
            </Array>
          </mxGeometry>
        </mxCell>
        <mxCell id="0wTsarcwlKku0vYo_N_W-2" style="rounded=0;jumpStyle=arc;orthogonalLoop=1;jettySize=auto;html=1;entryX=1;entryY=0.5;entryDx=0;entryDy=0;strokeWidth=2;fillColor=#dae8fc;strokeColor=#6c8ebf;" parent="1" source="rd0AGNtnHvDlbVDW9NCl-3" target="rd0AGNtnHvDlbVDW9NCl-13" edge="1">
          <mxGeometry relative="1" as="geometry" />
        </mxCell>
        <mxCell id="FUB7iW3as3UP1ABuUG8n-2" style="edgeStyle=orthogonalEdgeStyle;rounded=0;jumpStyle=arc;orthogonalLoop=1;jettySize=auto;html=1;entryX=0;entryY=0.5;entryDx=0;entryDy=0;dashed=1;strokeWidth=2;fillColor=#dae8fc;strokeColor=#6c8ebf;exitX=0;exitY=0.5;exitDx=0;exitDy=0;" parent="1" source="rd0AGNtnHvDlbVDW9NCl-3" target="rd0AGNtnHvDlbVDW9NCl-16" edge="1">
          <mxGeometry relative="1" as="geometry">
            <Array as="points">
              <mxPoint x="350" y="-700" />
              <mxPoint x="350" y="-480" />
            </Array>
          </mxGeometry>
        </mxCell>
        <mxCell id="FUB7iW3as3UP1ABuUG8n-1" style="rounded=0;jumpStyle=arc;orthogonalLoop=1;jettySize=auto;html=1;entryX=0;entryY=0.5;entryDx=0;entryDy=0;strokeWidth=2;fillColor=#dae8fc;strokeColor=#6c8ebf;dashed=1;" parent="1" source="rd0AGNtnHvDlbVDW9NCl-10" target="rd0AGNtnHvDlbVDW9NCl-16" edge="1">
          <mxGeometry relative="1" as="geometry" />
        </mxCell>
        <mxCell id="gM0llGaXSeHExgQVE_Sc-1" value="Key topics&lt;br style=&quot;border-color: var(--border-color);&quot;&gt;--------------&lt;br&gt;More complex&lt;br&gt;&lt;br&gt;ACE and MQ in client mode&lt;br&gt;&lt;span style=&quot;&quot;&gt;&lt;/span&gt;&lt;span style=&quot;&quot;&gt;&lt;/span&gt;&lt;span style=&quot;&quot;&gt;&lt;/span&gt;&lt;span style=&quot;&quot;&gt;&lt;/span&gt;&amp;nbsp;- connection needs to be via secured channel&lt;br&gt;&amp;nbsp;- ace can connect via host pool or ccdt or vip for failover&lt;br&gt;&lt;br&gt;Full HA ACE with automatic failover and recovery for MQ, no failover for ace&lt;br&gt;&amp;nbsp;- Double deploy for ace, single for MQ&lt;br&gt;&lt;span style=&quot;&quot;&gt; &lt;/span&gt;&lt;br&gt;MQ configuration and data stored on network share&lt;br style=&quot;border-color: var(--border-color);&quot;&gt;&lt;span style=&quot;border-color: var(--border-color);&quot;&gt;&lt;/span&gt;&lt;span style=&quot;&quot;&gt;&lt;/span&gt;&lt;span style=&quot;&quot;&gt;&lt;/span&gt;&lt;span style=&quot;&quot;&gt;&lt;/span&gt;&amp;nbsp;- Hard dependency on network and nfs&lt;br&gt;&lt;br&gt;Loadbalancer can round-robin. If MQ also exposed via LB it needs to follow the failovers.&lt;br&gt;&lt;br&gt;Licences for both instances are required&lt;br&gt;&lt;br&gt;One qmgr for 2 ace instances, so message order would still be guaranteed.&lt;br&gt;&lt;br&gt;Upgrades need to be performed in quick succesion, MI works best at identical service levels&lt;br&gt;&lt;br&gt;&lt;br&gt;Thoughts&lt;br style=&quot;border-color: var(--border-color);&quot;&gt;-------------&lt;br style=&quot;border-color: var(--border-color);&quot;&gt;After an automatic failover, manual intervention is needed to see why the instance failed over.&lt;br style=&quot;border-color: var(--border-color);&quot;&gt;Unless the original issue is solved you can&#39;t switch back&lt;br style=&quot;border-color: var(--border-color);&quot;&gt;&lt;br style=&quot;border-color: var(--border-color);&quot;&gt;The nfs and network could prove to be a big bottleneck.&lt;br style=&quot;border-color: var(--border-color);&quot;&gt;&amp;nbsp;- All persistent mq messages are written to the nfs, so any network and nfs latency will show in message throughput&lt;br&gt;&lt;br&gt;&lt;br&gt;Conclusion&lt;br&gt;---------------&lt;br&gt;Double ACE capacity but still one bus that could be a bottleneck here. &lt;br&gt;&lt;br&gt;MQ is also throttled by the nfs storage, should it be impacted somehow.&lt;br&gt;&lt;br&gt;MQ and ACE loosly coupled at this point, added security&lt;br&gt;&lt;br style=&quot;border-color: var(--border-color);&quot;&gt;No data is lost or needs to be recovered manually&lt;br&gt;&lt;br&gt;Message order guaranteed since only 1 mq instance is running" style="text;html=1;strokeColor=none;fillColor=none;align=left;verticalAlign=top;whiteSpace=wrap;rounded=0;dashed=1;" parent="1" vertex="1">
          <mxGeometry x="600" y="-910" width="640" height="640" as="geometry" />
        </mxCell>
        <mxCell id="9BstY37zIehcXWcHcp1J-1" style="rounded=0;jumpStyle=arc;orthogonalLoop=1;jettySize=auto;html=1;strokeWidth=2;entryX=0.5;entryY=0;entryDx=0;entryDy=0;" parent="1" source="9BstY37zIehcXWcHcp1J-3" edge="1">
          <mxGeometry relative="1" as="geometry">
            <mxPoint x="236.0139442231075" y="-871" as="sourcePoint" />
            <mxPoint x="105" y="-780" as="targetPoint" />
          </mxGeometry>
        </mxCell>
        <mxCell id="9BstY37zIehcXWcHcp1J-2" style="rounded=0;jumpStyle=arc;orthogonalLoop=1;jettySize=auto;html=1;entryX=0.5;entryY=0;entryDx=0;entryDy=0;strokeWidth=2;" parent="1" source="9BstY37zIehcXWcHcp1J-3" edge="1">
          <mxGeometry relative="1" as="geometry">
            <mxPoint x="353.0258964143427" y="-871" as="sourcePoint" />
            <mxPoint x="455" y="-780" as="targetPoint" />
          </mxGeometry>
        </mxCell>
        <mxCell id="9BstY37zIehcXWcHcp1J-3" value="" style="fontColor=#0066CC;verticalAlign=top;verticalLabelPosition=bottom;labelPosition=center;align=center;html=1;outlineConnect=0;fillColor=#CCCCCC;strokeColor=#6881B3;gradientColor=none;gradientDirection=north;strokeWidth=2;shape=mxgraph.networks.load_balancer;dashed=1;" parent="1" vertex="1">
          <mxGeometry x="185" y="-920" width="210" height="60" as="geometry" />
        </mxCell>
        <mxCell id="NnTNVUkrhAbgreKxTs-K-1" value="&lt;font color=&quot;#cc0000&quot;&gt;Dual Active ACE&lt;/font&gt; &amp;amp; Multi Instance MQ" style="text;html=1;strokeColor=#d79b00;fillColor=#ffe6cc;align=center;verticalAlign=middle;whiteSpace=wrap;rounded=0;fontSize=27;" vertex="1" parent="1">
          <mxGeometry x="30" y="-1060" width="750" height="60" as="geometry" />
        </mxCell>
      </root>
    </mxGraphModel>
  </diagram>
  <diagram name="DA ACE &amp; Cross MI MQ" id="XYwL9wbndD6GZtYSlB4F">
    <mxGraphModel dx="2074" dy="2304" grid="1" gridSize="10" guides="1" tooltips="1" connect="1" arrows="1" fold="1" page="1" pageScale="1" pageWidth="850" pageHeight="1100" math="0" shadow="0">
      <root>
        <mxCell id="Vs_GS55WJl2z1pYauYDB-0" />
        <mxCell id="Vs_GS55WJl2z1pYauYDB-1" parent="Vs_GS55WJl2z1pYauYDB-0" />
        <mxCell id="Vs_GS55WJl2z1pYauYDB-2" value="SERVER 1" style="rounded=1;whiteSpace=wrap;html=1;verticalAlign=top;" parent="Vs_GS55WJl2z1pYauYDB-1" vertex="1">
          <mxGeometry x="40" y="-800" width="140" height="530" as="geometry" />
        </mxCell>
        <mxCell id="Vs_GS55WJl2z1pYauYDB-3" value="SERVER 2" style="rounded=1;whiteSpace=wrap;html=1;verticalAlign=top;" parent="Vs_GS55WJl2z1pYauYDB-1" vertex="1">
          <mxGeometry x="390" y="-800" width="140" height="530" as="geometry" />
        </mxCell>
        <mxCell id="Vs_GS55WJl2z1pYauYDB-10" value="ACE" style="image;html=1;image=img/lib/clip_art/computers/Virtual_Application_128x128.png" parent="Vs_GS55WJl2z1pYauYDB-1" vertex="1">
          <mxGeometry x="430" y="-760" width="80" height="80" as="geometry" />
        </mxCell>
        <mxCell id="Vs_GS55WJl2z1pYauYDB-12" value="NFS / NAS" style="fontColor=#0066CC;verticalAlign=top;verticalLabelPosition=bottom;labelPosition=center;align=center;html=1;outlineConnect=0;fillColor=#CCCCCC;strokeColor=#6881B3;gradientColor=none;gradientDirection=north;strokeWidth=2;shape=mxgraph.networks.nas_filer;" parent="Vs_GS55WJl2z1pYauYDB-1" vertex="1">
          <mxGeometry x="240" y="-250" width="100" height="35" as="geometry" />
        </mxCell>
        <mxCell id="Vs_GS55WJl2z1pYauYDB-13" value="" style="endArrow=classic;html=1;rounded=0;exitX=0;exitY=0.5;exitDx=0;exitDy=0;entryX=1;entryY=1;entryDx=0;entryDy=0;entryPerimeter=0;" parent="Vs_GS55WJl2z1pYauYDB-1" source="Vs_GS55WJl2z1pYauYDB-5" target="Vs_GS55WJl2z1pYauYDB-12" edge="1">
          <mxGeometry width="50" height="50" relative="1" as="geometry">
            <mxPoint x="290" y="-260" as="sourcePoint" />
            <mxPoint x="395" y="-200" as="targetPoint" />
          </mxGeometry>
        </mxCell>
        <mxCell id="Vs_GS55WJl2z1pYauYDB-14" style="rounded=0;orthogonalLoop=1;jettySize=auto;html=1;entryX=0;entryY=0.5;entryDx=0;entryDy=0;entryPerimeter=0;exitX=1;exitY=0.5;exitDx=0;exitDy=0;" parent="Vs_GS55WJl2z1pYauYDB-1" source="Vs_GS55WJl2z1pYauYDB-6" target="Vs_GS55WJl2z1pYauYDB-12" edge="1">
          <mxGeometry relative="1" as="geometry" />
        </mxCell>
        <mxCell id="Vs_GS55WJl2z1pYauYDB-15" style="edgeStyle=none;rounded=0;orthogonalLoop=1;jettySize=auto;html=1;entryX=1;entryY=0.5;entryDx=0;entryDy=0;entryPerimeter=0;dashed=1;exitX=0;exitY=0.5;exitDx=0;exitDy=0;" parent="Vs_GS55WJl2z1pYauYDB-1" source="Vs_GS55WJl2z1pYauYDB-4" target="Vs_GS55WJl2z1pYauYDB-12" edge="1">
          <mxGeometry relative="1" as="geometry" />
        </mxCell>
        <mxCell id="Vs_GS55WJl2z1pYauYDB-16" style="edgeStyle=none;rounded=0;orthogonalLoop=1;jettySize=auto;html=1;entryX=0;entryY=1;entryDx=0;entryDy=0;entryPerimeter=0;dashed=1;exitX=1;exitY=0.5;exitDx=0;exitDy=0;" parent="Vs_GS55WJl2z1pYauYDB-1" source="Vs_GS55WJl2z1pYauYDB-7" target="Vs_GS55WJl2z1pYauYDB-12" edge="1">
          <mxGeometry relative="1" as="geometry" />
        </mxCell>
        <mxCell id="Vs_GS55WJl2z1pYauYDB-17" value="ACE" style="image;html=1;image=img/lib/clip_art/computers/Virtual_Application_128x128.png" parent="Vs_GS55WJl2z1pYauYDB-1" vertex="1">
          <mxGeometry x="60" y="-760" width="80" height="80" as="geometry" />
        </mxCell>
        <mxCell id="Vs_GS55WJl2z1pYauYDB-4" value="Instance 1" style="rounded=1;whiteSpace=wrap;html=1;verticalAlign=top;dashed=1;" parent="Vs_GS55WJl2z1pYauYDB-1" vertex="1">
          <mxGeometry x="400" y="-570" width="120" height="140" as="geometry" />
        </mxCell>
        <mxCell id="Vs_GS55WJl2z1pYauYDB-20" value="MQ" style="image;html=1;image=img/lib/clip_art/computers/Virtual_Application_128x128.png" parent="Vs_GS55WJl2z1pYauYDB-1" vertex="1">
          <mxGeometry x="430" y="-540" width="80" height="80" as="geometry" />
        </mxCell>
        <mxCell id="Vs_GS55WJl2z1pYauYDB-5" value="Instance 2" style="rounded=1;whiteSpace=wrap;html=1;verticalAlign=top;" parent="Vs_GS55WJl2z1pYauYDB-1" vertex="1">
          <mxGeometry x="400" y="-420" width="120" height="140" as="geometry" />
        </mxCell>
        <mxCell id="Vs_GS55WJl2z1pYauYDB-11" value="MQ" style="image;html=1;image=img/lib/clip_art/computers/Virtual_Application_128x128.png" parent="Vs_GS55WJl2z1pYauYDB-1" vertex="1">
          <mxGeometry x="430" y="-390" width="80" height="80" as="geometry" />
        </mxCell>
        <mxCell id="Vs_GS55WJl2z1pYauYDB-6" value="Instance 1" style="rounded=1;whiteSpace=wrap;html=1;verticalAlign=top;" parent="Vs_GS55WJl2z1pYauYDB-1" vertex="1">
          <mxGeometry x="50" y="-570" width="120" height="140" as="geometry" />
        </mxCell>
        <mxCell id="Vs_GS55WJl2z1pYauYDB-18" value="MQ" style="image;html=1;image=img/lib/clip_art/computers/Virtual_Application_128x128.png" parent="Vs_GS55WJl2z1pYauYDB-1" vertex="1">
          <mxGeometry x="60" y="-540" width="80" height="80" as="geometry" />
        </mxCell>
        <mxCell id="Vs_GS55WJl2z1pYauYDB-7" value="Instance 2" style="rounded=1;whiteSpace=wrap;html=1;verticalAlign=top;dashed=1;" parent="Vs_GS55WJl2z1pYauYDB-1" vertex="1">
          <mxGeometry x="50" y="-420" width="120" height="140" as="geometry" />
        </mxCell>
        <mxCell id="Vs_GS55WJl2z1pYauYDB-9" value="MQ" style="image;html=1;image=img/lib/clip_art/computers/Virtual_Application_128x128.png" parent="Vs_GS55WJl2z1pYauYDB-1" vertex="1">
          <mxGeometry x="60" y="-390" width="80" height="80" as="geometry" />
        </mxCell>
        <mxCell id="DgY4DBBtHw3jw9wtOXHB-1" style="edgeStyle=orthogonalEdgeStyle;rounded=0;orthogonalLoop=1;jettySize=auto;html=1;entryX=1;entryY=0.5;entryDx=0;entryDy=0;strokeWidth=2;fillColor=#dae8fc;strokeColor=#6c8ebf;exitX=1;exitY=0.5;exitDx=0;exitDy=0;" parent="Vs_GS55WJl2z1pYauYDB-1" source="Vs_GS55WJl2z1pYauYDB-17" target="Vs_GS55WJl2z1pYauYDB-18" edge="1">
          <mxGeometry relative="1" as="geometry">
            <Array as="points">
              <mxPoint x="210" y="-720" />
              <mxPoint x="210" y="-500" />
            </Array>
          </mxGeometry>
        </mxCell>
        <mxCell id="DgY4DBBtHw3jw9wtOXHB-3" style="edgeStyle=orthogonalEdgeStyle;rounded=0;orthogonalLoop=1;jettySize=auto;html=1;entryX=0;entryY=0.5;entryDx=0;entryDy=0;strokeWidth=2;exitX=0;exitY=0.5;exitDx=0;exitDy=0;fillColor=#d5e8d4;strokeColor=#82b366;" parent="Vs_GS55WJl2z1pYauYDB-1" source="Vs_GS55WJl2z1pYauYDB-10" target="Vs_GS55WJl2z1pYauYDB-11" edge="1">
          <mxGeometry relative="1" as="geometry">
            <Array as="points">
              <mxPoint x="350" y="-720" />
              <mxPoint x="350" y="-350" />
            </Array>
          </mxGeometry>
        </mxCell>
        <mxCell id="DgY4DBBtHw3jw9wtOXHB-4" style="rounded=0;orthogonalLoop=1;jettySize=auto;html=1;entryX=1;entryY=0.5;entryDx=0;entryDy=0;strokeWidth=2;fillColor=#d5e8d4;strokeColor=#82b366;dashed=1;jumpStyle=arc;" parent="Vs_GS55WJl2z1pYauYDB-1" source="Vs_GS55WJl2z1pYauYDB-10" target="Vs_GS55WJl2z1pYauYDB-9" edge="1">
          <mxGeometry relative="1" as="geometry" />
        </mxCell>
        <mxCell id="DgY4DBBtHw3jw9wtOXHB-2" style="rounded=0;orthogonalLoop=1;jettySize=auto;html=1;entryX=0;entryY=0.5;entryDx=0;entryDy=0;strokeWidth=2;fillColor=#dae8fc;strokeColor=#6c8ebf;dashed=1;jumpStyle=arc;" parent="Vs_GS55WJl2z1pYauYDB-1" source="Vs_GS55WJl2z1pYauYDB-17" target="Vs_GS55WJl2z1pYauYDB-20" edge="1">
          <mxGeometry relative="1" as="geometry" />
        </mxCell>
        <mxCell id="lNhFElyPCoAfHpjCDoAL-0" style="rounded=0;jumpStyle=arc;orthogonalLoop=1;jettySize=auto;html=1;strokeWidth=2;entryX=0.5;entryY=0;entryDx=0;entryDy=0;" parent="Vs_GS55WJl2z1pYauYDB-1" source="lNhFElyPCoAfHpjCDoAL-2" edge="1">
          <mxGeometry relative="1" as="geometry">
            <mxPoint x="246.0139442231075" y="-891" as="sourcePoint" />
            <mxPoint x="115" y="-800" as="targetPoint" />
          </mxGeometry>
        </mxCell>
        <mxCell id="lNhFElyPCoAfHpjCDoAL-1" style="rounded=0;jumpStyle=arc;orthogonalLoop=1;jettySize=auto;html=1;entryX=0.5;entryY=0;entryDx=0;entryDy=0;strokeWidth=2;" parent="Vs_GS55WJl2z1pYauYDB-1" source="lNhFElyPCoAfHpjCDoAL-2" edge="1">
          <mxGeometry relative="1" as="geometry">
            <mxPoint x="363.0258964143427" y="-891" as="sourcePoint" />
            <mxPoint x="465" y="-800" as="targetPoint" />
          </mxGeometry>
        </mxCell>
        <mxCell id="lNhFElyPCoAfHpjCDoAL-2" value="" style="fontColor=#0066CC;verticalAlign=top;verticalLabelPosition=bottom;labelPosition=center;align=center;html=1;outlineConnect=0;fillColor=#CCCCCC;strokeColor=#6881B3;gradientColor=none;gradientDirection=north;strokeWidth=2;shape=mxgraph.networks.load_balancer;dashed=1;" parent="Vs_GS55WJl2z1pYauYDB-1" vertex="1">
          <mxGeometry x="195" y="-940" width="210" height="60" as="geometry" />
        </mxCell>
        <mxCell id="hKSA3pqDIABxTvtCqwQc-0" value="Key topics&lt;br style=&quot;border-color: var(--border-color);&quot;&gt;--------------&lt;br&gt;More complex&lt;br&gt;&lt;br&gt;ACE and MQ in client mode&lt;br&gt;&lt;span style=&quot;&quot;&gt;&lt;/span&gt;&lt;span style=&quot;&quot;&gt;&lt;/span&gt;&lt;span style=&quot;&quot;&gt;&lt;/span&gt;&lt;span style=&quot;&quot;&gt;&lt;/span&gt;&amp;nbsp;- connection needs to be via secured channel&lt;br&gt;&amp;nbsp;- ace can connect via host pool or ccdt or vip for failover&lt;br&gt;&lt;br&gt;Full HA ACE with automatic failover and recovery for MQ, no failover for ace&lt;br&gt;&amp;nbsp;- Double deploy for both ace and mq&lt;br&gt;&lt;span style=&quot;&quot;&gt; &lt;/span&gt;&lt;br&gt;MQ configuration and data stored on network share&lt;br style=&quot;border-color: var(--border-color);&quot;&gt;&lt;span style=&quot;border-color: var(--border-color);&quot;&gt;&lt;/span&gt;&lt;span style=&quot;&quot;&gt;&lt;/span&gt;&lt;span style=&quot;&quot;&gt;&lt;/span&gt;&lt;span style=&quot;&quot;&gt;&lt;/span&gt;&amp;nbsp;- Hard dependency on network and nfs&lt;br&gt;&lt;br&gt;Loadbalancer can round-robin. If MQ also exposed via LB it needs to follow the failovers for both instances&lt;br&gt;&lt;br&gt;Licences for both instances are required&lt;br&gt;&lt;br&gt;Two qmgrs for 2 ace instances, so message order can be tricky here. Depending on the setup&lt;br&gt;Each ACE instances connects with a dedicated mq instance, so this can help guarantee order&amp;nbsp;&lt;br&gt;&lt;br&gt;Upgrades need to be performed in quick succesion, MI works best at identical service levels&lt;br&gt;&lt;br&gt;&lt;br&gt;Thoughts&lt;br style=&quot;border-color: var(--border-color);&quot;&gt;-------------&lt;br style=&quot;border-color: var(--border-color);&quot;&gt;After an automatic failover, manual intervention is needed to see why the instance failed over.&lt;br style=&quot;border-color: var(--border-color);&quot;&gt;Unless the original issue is solved you can&#39;t switch back&lt;br style=&quot;border-color: var(--border-color);&quot;&gt;&lt;br&gt;If one of the servers crashes, you end up with 1 ace and 2 mq instances, kinda overkill&lt;br&gt;&lt;br style=&quot;border-color: var(--border-color);&quot;&gt;The nfs and network could prove to be a big bottleneck.&lt;br style=&quot;border-color: var(--border-color);&quot;&gt;&amp;nbsp;- All persistent mq messages are written to the nfs, so any network and nfs latency will show in message throughput&lt;br&gt;&lt;br&gt;&lt;br&gt;Conclusion&lt;br&gt;---------------&lt;br&gt;Double capacity&lt;br&gt;&lt;br&gt;MQ is also throttled by the nfs storage, should it be impacted somehow.&lt;br&gt;&lt;br&gt;MQ and ACE loosly coupled&lt;br&gt;&lt;br style=&quot;border-color: var(--border-color);&quot;&gt;No data is lost or needs to be recovered manually per mq instance&lt;br&gt;&lt;br&gt;Message order can be guaranteed within one ACE instance.&amp;nbsp;" style="text;html=1;strokeColor=none;fillColor=none;align=left;verticalAlign=top;whiteSpace=wrap;rounded=0;dashed=1;" parent="Vs_GS55WJl2z1pYauYDB-1" vertex="1">
          <mxGeometry x="590" y="-930" width="640" height="640" as="geometry" />
        </mxCell>
        <mxCell id="gLjaDCrqM_oCG99IY7k--0" value="Dual Active ACE &amp;amp; &lt;font color=&quot;#cc0000&quot;&gt;Cross&lt;/font&gt; Multi Instance MQ" style="text;html=1;strokeColor=#d79b00;fillColor=#ffe6cc;align=center;verticalAlign=middle;whiteSpace=wrap;rounded=0;fontSize=27;" vertex="1" parent="Vs_GS55WJl2z1pYauYDB-1">
          <mxGeometry x="30" y="-1080" width="750" height="60" as="geometry" />
        </mxCell>
      </root>
    </mxGraphModel>
  </diagram>
  <diagram name="DA ACE &amp; Cross MI MQ Cluster" id="m-akkYdrXmQfI8Hdfv_4">
    <mxGraphModel dx="2074" dy="2304" grid="1" gridSize="10" guides="1" tooltips="1" connect="1" arrows="1" fold="1" page="1" pageScale="1" pageWidth="850" pageHeight="1100" math="0" shadow="0">
      <root>
        <mxCell id="jw2MCA0iwe1ytM3KUruY-0" />
        <mxCell id="jw2MCA0iwe1ytM3KUruY-1" parent="jw2MCA0iwe1ytM3KUruY-0" />
        <mxCell id="sG3gCpULEX420Eb75PEE-14" value="Connect" style="edgeStyle=orthogonalEdgeStyle;rounded=0;orthogonalLoop=1;jettySize=auto;html=1;entryX=0.5;entryY=1;entryDx=0;entryDy=0;" edge="1" parent="jw2MCA0iwe1ytM3KUruY-1" source="sG3gCpULEX420Eb75PEE-12" target="sG3gCpULEX420Eb75PEE-5">
          <mxGeometry relative="1" as="geometry" />
        </mxCell>
        <mxCell id="sG3gCpULEX420Eb75PEE-12" value="Node2" style="rounded=1;whiteSpace=wrap;html=1;" vertex="1" parent="jw2MCA0iwe1ytM3KUruY-1">
          <mxGeometry x="1780" y="-465" width="260" height="250" as="geometry" />
        </mxCell>
        <mxCell id="sG3gCpULEX420Eb75PEE-13" value="Connect" style="edgeStyle=orthogonalEdgeStyle;rounded=0;orthogonalLoop=1;jettySize=auto;html=1;" edge="1" parent="jw2MCA0iwe1ytM3KUruY-1" source="sG3gCpULEX420Eb75PEE-11" target="sG3gCpULEX420Eb75PEE-4">
          <mxGeometry relative="1" as="geometry" />
        </mxCell>
        <mxCell id="sG3gCpULEX420Eb75PEE-11" value="conn" style="rounded=1;whiteSpace=wrap;html=1;" vertex="1" parent="jw2MCA0iwe1ytM3KUruY-1">
          <mxGeometry x="1410" y="-465" width="260" height="250" as="geometry" />
        </mxCell>
        <mxCell id="sG3gCpULEX420Eb75PEE-8" value="Cluster" style="rounded=1;whiteSpace=wrap;html=1;fillColor=none;dashed=1;verticalAlign=top;" vertex="1" parent="jw2MCA0iwe1ytM3KUruY-1">
          <mxGeometry x="1360" y="-880" width="730" height="350" as="geometry" />
        </mxCell>
        <mxCell id="sG3gCpULEX420Eb75PEE-4" value="QMGR1" style="rounded=1;whiteSpace=wrap;html=1;" vertex="1" parent="jw2MCA0iwe1ytM3KUruY-1">
          <mxGeometry x="1410" y="-830" width="260" height="250" as="geometry" />
        </mxCell>
        <mxCell id="sG3gCpULEX420Eb75PEE-5" value="QMGR2" style="rounded=1;whiteSpace=wrap;html=1;" vertex="1" parent="jw2MCA0iwe1ytM3KUruY-1">
          <mxGeometry x="1780" y="-830" width="260" height="250" as="geometry" />
        </mxCell>
        <mxCell id="jw2MCA0iwe1ytM3KUruY-2" value="SERVER 1" style="rounded=1;whiteSpace=wrap;html=1;verticalAlign=top;" parent="jw2MCA0iwe1ytM3KUruY-1" vertex="1">
          <mxGeometry x="40" y="-790" width="140" height="530" as="geometry" />
        </mxCell>
        <mxCell id="jw2MCA0iwe1ytM3KUruY-3" value="SERVER 2" style="rounded=1;whiteSpace=wrap;html=1;verticalAlign=top;" parent="jw2MCA0iwe1ytM3KUruY-1" vertex="1">
          <mxGeometry x="390" y="-790" width="140" height="530" as="geometry" />
        </mxCell>
        <mxCell id="jw2MCA0iwe1ytM3KUruY-4" value="ACE" style="image;html=1;image=img/lib/clip_art/computers/Virtual_Application_128x128.png" parent="jw2MCA0iwe1ytM3KUruY-1" vertex="1">
          <mxGeometry x="430" y="-750" width="80" height="80" as="geometry" />
        </mxCell>
        <mxCell id="jw2MCA0iwe1ytM3KUruY-5" value="NFS / NAS" style="fontColor=#0066CC;verticalAlign=top;verticalLabelPosition=bottom;labelPosition=center;align=center;html=1;outlineConnect=0;fillColor=#CCCCCC;strokeColor=#6881B3;gradientColor=none;gradientDirection=north;strokeWidth=2;shape=mxgraph.networks.nas_filer;" parent="jw2MCA0iwe1ytM3KUruY-1" vertex="1">
          <mxGeometry x="240" y="-240" width="100" height="35" as="geometry" />
        </mxCell>
        <mxCell id="jw2MCA0iwe1ytM3KUruY-6" value="" style="endArrow=classic;html=1;rounded=0;exitX=0;exitY=0.5;exitDx=0;exitDy=0;entryX=1;entryY=1;entryDx=0;entryDy=0;entryPerimeter=0;" parent="jw2MCA0iwe1ytM3KUruY-1" source="jw2MCA0iwe1ytM3KUruY-13" target="jw2MCA0iwe1ytM3KUruY-5" edge="1">
          <mxGeometry width="50" height="50" relative="1" as="geometry">
            <mxPoint x="290" y="-250" as="sourcePoint" />
            <mxPoint x="395" y="-190" as="targetPoint" />
          </mxGeometry>
        </mxCell>
        <mxCell id="jw2MCA0iwe1ytM3KUruY-7" style="rounded=0;orthogonalLoop=1;jettySize=auto;html=1;entryX=0;entryY=0.5;entryDx=0;entryDy=0;entryPerimeter=0;exitX=1;exitY=0.5;exitDx=0;exitDy=0;" parent="jw2MCA0iwe1ytM3KUruY-1" source="jw2MCA0iwe1ytM3KUruY-15" target="jw2MCA0iwe1ytM3KUruY-5" edge="1">
          <mxGeometry relative="1" as="geometry" />
        </mxCell>
        <mxCell id="jw2MCA0iwe1ytM3KUruY-8" style="edgeStyle=none;rounded=0;orthogonalLoop=1;jettySize=auto;html=1;entryX=1;entryY=0.5;entryDx=0;entryDy=0;entryPerimeter=0;dashed=1;exitX=0;exitY=0.5;exitDx=0;exitDy=0;" parent="jw2MCA0iwe1ytM3KUruY-1" source="jw2MCA0iwe1ytM3KUruY-11" target="jw2MCA0iwe1ytM3KUruY-5" edge="1">
          <mxGeometry relative="1" as="geometry" />
        </mxCell>
        <mxCell id="jw2MCA0iwe1ytM3KUruY-9" style="edgeStyle=none;rounded=0;orthogonalLoop=1;jettySize=auto;html=1;entryX=0;entryY=1;entryDx=0;entryDy=0;entryPerimeter=0;dashed=1;exitX=1;exitY=0.5;exitDx=0;exitDy=0;" parent="jw2MCA0iwe1ytM3KUruY-1" source="jw2MCA0iwe1ytM3KUruY-17" target="jw2MCA0iwe1ytM3KUruY-5" edge="1">
          <mxGeometry relative="1" as="geometry" />
        </mxCell>
        <mxCell id="jw2MCA0iwe1ytM3KUruY-10" value="ACE" style="image;html=1;image=img/lib/clip_art/computers/Virtual_Application_128x128.png" parent="jw2MCA0iwe1ytM3KUruY-1" vertex="1">
          <mxGeometry x="60" y="-750" width="80" height="80" as="geometry" />
        </mxCell>
        <mxCell id="jw2MCA0iwe1ytM3KUruY-11" value="Instance 1" style="rounded=1;whiteSpace=wrap;html=1;verticalAlign=top;dashed=1;" parent="jw2MCA0iwe1ytM3KUruY-1" vertex="1">
          <mxGeometry x="400" y="-560" width="120" height="140" as="geometry" />
        </mxCell>
        <mxCell id="jw2MCA0iwe1ytM3KUruY-12" value="MQ" style="image;html=1;image=img/lib/clip_art/computers/Virtual_Application_128x128.png" parent="jw2MCA0iwe1ytM3KUruY-1" vertex="1">
          <mxGeometry x="430" y="-530" width="80" height="80" as="geometry" />
        </mxCell>
        <mxCell id="jw2MCA0iwe1ytM3KUruY-13" value="Instance 2" style="rounded=1;whiteSpace=wrap;html=1;verticalAlign=top;" parent="jw2MCA0iwe1ytM3KUruY-1" vertex="1">
          <mxGeometry x="400" y="-410" width="120" height="140" as="geometry" />
        </mxCell>
        <mxCell id="jw2MCA0iwe1ytM3KUruY-14" value="MQ" style="image;html=1;image=img/lib/clip_art/computers/Virtual_Application_128x128.png" parent="jw2MCA0iwe1ytM3KUruY-1" vertex="1">
          <mxGeometry x="430" y="-380" width="80" height="80" as="geometry" />
        </mxCell>
        <mxCell id="jw2MCA0iwe1ytM3KUruY-15" value="Instance 1" style="rounded=1;whiteSpace=wrap;html=1;verticalAlign=top;" parent="jw2MCA0iwe1ytM3KUruY-1" vertex="1">
          <mxGeometry x="50" y="-560" width="120" height="140" as="geometry" />
        </mxCell>
        <mxCell id="jw2MCA0iwe1ytM3KUruY-16" value="MQ" style="image;html=1;image=img/lib/clip_art/computers/Virtual_Application_128x128.png" parent="jw2MCA0iwe1ytM3KUruY-1" vertex="1">
          <mxGeometry x="60" y="-530" width="80" height="80" as="geometry" />
        </mxCell>
        <mxCell id="jw2MCA0iwe1ytM3KUruY-17" value="Instance 2" style="rounded=1;whiteSpace=wrap;html=1;verticalAlign=top;dashed=1;" parent="jw2MCA0iwe1ytM3KUruY-1" vertex="1">
          <mxGeometry x="50" y="-410" width="120" height="140" as="geometry" />
        </mxCell>
        <mxCell id="jw2MCA0iwe1ytM3KUruY-18" value="MQ" style="image;html=1;image=img/lib/clip_art/computers/Virtual_Application_128x128.png" parent="jw2MCA0iwe1ytM3KUruY-1" vertex="1">
          <mxGeometry x="60" y="-380" width="80" height="80" as="geometry" />
        </mxCell>
        <mxCell id="jw2MCA0iwe1ytM3KUruY-19" style="edgeStyle=orthogonalEdgeStyle;rounded=0;orthogonalLoop=1;jettySize=auto;html=1;entryX=1;entryY=0.5;entryDx=0;entryDy=0;strokeWidth=2;fillColor=#dae8fc;strokeColor=#6c8ebf;exitX=1;exitY=0.5;exitDx=0;exitDy=0;" parent="jw2MCA0iwe1ytM3KUruY-1" source="jw2MCA0iwe1ytM3KUruY-10" target="jw2MCA0iwe1ytM3KUruY-16" edge="1">
          <mxGeometry relative="1" as="geometry">
            <Array as="points">
              <mxPoint x="210" y="-710" />
              <mxPoint x="210" y="-490" />
            </Array>
          </mxGeometry>
        </mxCell>
        <mxCell id="jw2MCA0iwe1ytM3KUruY-20" style="edgeStyle=orthogonalEdgeStyle;rounded=0;orthogonalLoop=1;jettySize=auto;html=1;entryX=0;entryY=0.5;entryDx=0;entryDy=0;strokeWidth=2;exitX=0;exitY=0.5;exitDx=0;exitDy=0;fillColor=#d5e8d4;strokeColor=#82b366;" parent="jw2MCA0iwe1ytM3KUruY-1" source="jw2MCA0iwe1ytM3KUruY-4" target="jw2MCA0iwe1ytM3KUruY-14" edge="1">
          <mxGeometry relative="1" as="geometry">
            <Array as="points">
              <mxPoint x="350" y="-710" />
              <mxPoint x="350" y="-340" />
            </Array>
          </mxGeometry>
        </mxCell>
        <mxCell id="jw2MCA0iwe1ytM3KUruY-21" style="rounded=0;orthogonalLoop=1;jettySize=auto;html=1;entryX=1;entryY=0.5;entryDx=0;entryDy=0;strokeWidth=2;fillColor=#d5e8d4;strokeColor=#82b366;dashed=1;jumpStyle=arc;" parent="jw2MCA0iwe1ytM3KUruY-1" source="jw2MCA0iwe1ytM3KUruY-4" target="jw2MCA0iwe1ytM3KUruY-18" edge="1">
          <mxGeometry relative="1" as="geometry" />
        </mxCell>
        <mxCell id="jw2MCA0iwe1ytM3KUruY-22" style="rounded=0;orthogonalLoop=1;jettySize=auto;html=1;entryX=0;entryY=0.5;entryDx=0;entryDy=0;strokeWidth=2;fillColor=#dae8fc;strokeColor=#6c8ebf;dashed=1;jumpStyle=arc;" parent="jw2MCA0iwe1ytM3KUruY-1" source="jw2MCA0iwe1ytM3KUruY-10" target="jw2MCA0iwe1ytM3KUruY-12" edge="1">
          <mxGeometry relative="1" as="geometry" />
        </mxCell>
        <mxCell id="jw2MCA0iwe1ytM3KUruY-23" style="rounded=0;jumpStyle=arc;orthogonalLoop=1;jettySize=auto;html=1;strokeWidth=2;entryX=0.5;entryY=0;entryDx=0;entryDy=0;" parent="jw2MCA0iwe1ytM3KUruY-1" source="jw2MCA0iwe1ytM3KUruY-25" edge="1">
          <mxGeometry relative="1" as="geometry">
            <mxPoint x="246.0139442231075" y="-881" as="sourcePoint" />
            <mxPoint x="115" y="-790" as="targetPoint" />
          </mxGeometry>
        </mxCell>
        <mxCell id="jw2MCA0iwe1ytM3KUruY-24" style="rounded=0;jumpStyle=arc;orthogonalLoop=1;jettySize=auto;html=1;entryX=0.5;entryY=0;entryDx=0;entryDy=0;strokeWidth=2;" parent="jw2MCA0iwe1ytM3KUruY-1" source="jw2MCA0iwe1ytM3KUruY-25" edge="1">
          <mxGeometry relative="1" as="geometry">
            <mxPoint x="363.0258964143427" y="-881" as="sourcePoint" />
            <mxPoint x="465" y="-790" as="targetPoint" />
          </mxGeometry>
        </mxCell>
        <mxCell id="jw2MCA0iwe1ytM3KUruY-25" value="" style="fontColor=#0066CC;verticalAlign=top;verticalLabelPosition=bottom;labelPosition=center;align=center;html=1;outlineConnect=0;fillColor=#CCCCCC;strokeColor=#6881B3;gradientColor=none;gradientDirection=north;strokeWidth=2;shape=mxgraph.networks.load_balancer;dashed=1;" parent="jw2MCA0iwe1ytM3KUruY-1" vertex="1">
          <mxGeometry x="195" y="-930" width="210" height="60" as="geometry" />
        </mxCell>
        <mxCell id="ZCFZpJ9vYUdrWcFiZnv9-0" value="MQ Cluster" style="rounded=1;whiteSpace=wrap;html=1;dashed=1;fillColor=none;strokeColor=#b85450;verticalAlign=top;" parent="jw2MCA0iwe1ytM3KUruY-1" vertex="1">
          <mxGeometry x="46" y="-580" width="477" height="330" as="geometry" />
        </mxCell>
        <mxCell id="7-76hSlsiCwX5whnzXqX-0" value="&lt;span style=&quot;color: rgb(0, 0, 0); font-family: Helvetica; font-size: 12px; font-style: normal; font-variant-ligatures: normal; font-variant-caps: normal; font-weight: 400; letter-spacing: normal; orphans: 2; text-align: left; text-indent: 0px; text-transform: none; widows: 2; word-spacing: 0px; -webkit-text-stroke-width: 0px; background-color: rgb(251, 251, 251); text-decoration-thickness: initial; text-decoration-style: initial; text-decoration-color: initial; float: none; display: inline !important;&quot;&gt;Key topics&lt;/span&gt;&lt;br style=&quot;border-color: var(--border-color); color: rgb(0, 0, 0); font-family: Helvetica; font-size: 12px; font-style: normal; font-variant-ligatures: normal; font-variant-caps: normal; font-weight: 400; letter-spacing: normal; orphans: 2; text-align: left; text-indent: 0px; text-transform: none; widows: 2; word-spacing: 0px; -webkit-text-stroke-width: 0px; background-color: rgb(251, 251, 251); text-decoration-thickness: initial; text-decoration-style: initial; text-decoration-color: initial;&quot;&gt;&lt;span style=&quot;color: rgb(0, 0, 0); font-family: Helvetica; font-size: 12px; font-style: normal; font-variant-ligatures: normal; font-variant-caps: normal; font-weight: 400; letter-spacing: normal; orphans: 2; text-align: left; text-indent: 0px; text-transform: none; widows: 2; word-spacing: 0px; -webkit-text-stroke-width: 0px; background-color: rgb(251, 251, 251); text-decoration-thickness: initial; text-decoration-style: initial; text-decoration-color: initial; float: none; display: inline !important;&quot;&gt;--------------&lt;/span&gt;&lt;br style=&quot;border-color: var(--border-color); color: rgb(0, 0, 0); font-family: Helvetica; font-size: 12px; font-style: normal; font-variant-ligatures: normal; font-variant-caps: normal; font-weight: 400; letter-spacing: normal; orphans: 2; text-align: left; text-indent: 0px; text-transform: none; widows: 2; word-spacing: 0px; -webkit-text-stroke-width: 0px; background-color: rgb(251, 251, 251); text-decoration-thickness: initial; text-decoration-style: initial; text-decoration-color: initial;&quot;&gt;&lt;span style=&quot;color: rgb(0, 0, 0); font-family: Helvetica; font-size: 12px; font-style: normal; font-variant-ligatures: normal; font-variant-caps: normal; font-weight: 400; letter-spacing: normal; orphans: 2; text-align: left; text-indent: 0px; text-transform: none; widows: 2; word-spacing: 0px; -webkit-text-stroke-width: 0px; background-color: rgb(251, 251, 251); text-decoration-thickness: initial; text-decoration-style: initial; text-decoration-color: initial; float: none; display: inline !important;&quot;&gt;More complex&lt;/span&gt;&lt;br style=&quot;border-color: var(--border-color); color: rgb(0, 0, 0); font-family: Helvetica; font-size: 12px; font-style: normal; font-variant-ligatures: normal; font-variant-caps: normal; font-weight: 400; letter-spacing: normal; orphans: 2; text-align: left; text-indent: 0px; text-transform: none; widows: 2; word-spacing: 0px; -webkit-text-stroke-width: 0px; background-color: rgb(251, 251, 251); text-decoration-thickness: initial; text-decoration-style: initial; text-decoration-color: initial;&quot;&gt;&lt;br style=&quot;border-color: var(--border-color); color: rgb(0, 0, 0); font-family: Helvetica; font-size: 12px; font-style: normal; font-variant-ligatures: normal; font-variant-caps: normal; font-weight: 400; letter-spacing: normal; orphans: 2; text-align: left; text-indent: 0px; text-transform: none; widows: 2; word-spacing: 0px; -webkit-text-stroke-width: 0px; background-color: rgb(251, 251, 251); text-decoration-thickness: initial; text-decoration-style: initial; text-decoration-color: initial;&quot;&gt;&lt;span style=&quot;color: rgb(0, 0, 0); font-family: Helvetica; font-size: 12px; font-style: normal; font-variant-ligatures: normal; font-variant-caps: normal; font-weight: 400; letter-spacing: normal; orphans: 2; text-align: left; text-indent: 0px; text-transform: none; widows: 2; word-spacing: 0px; -webkit-text-stroke-width: 0px; background-color: rgb(251, 251, 251); text-decoration-thickness: initial; text-decoration-style: initial; text-decoration-color: initial; float: none; display: inline !important;&quot;&gt;ACE and MQ in client mode&lt;/span&gt;&lt;br style=&quot;border-color: var(--border-color); color: rgb(0, 0, 0); font-family: Helvetica; font-size: 12px; font-style: normal; font-variant-ligatures: normal; font-variant-caps: normal; font-weight: 400; letter-spacing: normal; orphans: 2; text-align: left; text-indent: 0px; text-transform: none; widows: 2; word-spacing: 0px; -webkit-text-stroke-width: 0px; background-color: rgb(251, 251, 251); text-decoration-thickness: initial; text-decoration-style: initial; text-decoration-color: initial;&quot;&gt;&lt;span style=&quot;border-color: var(--border-color); color: rgb(0, 0, 0); font-family: Helvetica; font-size: 12px; font-style: normal; font-variant-ligatures: normal; font-variant-caps: normal; font-weight: 400; letter-spacing: normal; orphans: 2; text-align: left; text-indent: 0px; text-transform: none; widows: 2; word-spacing: 0px; -webkit-text-stroke-width: 0px; background-color: rgb(251, 251, 251); text-decoration-thickness: initial; text-decoration-style: initial; text-decoration-color: initial;&quot;&gt;&lt;/span&gt;&lt;span style=&quot;border-color: var(--border-color); color: rgb(0, 0, 0); font-family: Helvetica; font-size: 12px; font-style: normal; font-variant-ligatures: normal; font-variant-caps: normal; font-weight: 400; letter-spacing: normal; orphans: 2; text-align: left; text-indent: 0px; text-transform: none; widows: 2; word-spacing: 0px; -webkit-text-stroke-width: 0px; background-color: rgb(251, 251, 251); text-decoration-thickness: initial; text-decoration-style: initial; text-decoration-color: initial;&quot;&gt;&lt;/span&gt;&lt;span style=&quot;border-color: var(--border-color); color: rgb(0, 0, 0); font-family: Helvetica; font-size: 12px; font-style: normal; font-variant-ligatures: normal; font-variant-caps: normal; font-weight: 400; letter-spacing: normal; orphans: 2; text-align: left; text-indent: 0px; text-transform: none; widows: 2; word-spacing: 0px; -webkit-text-stroke-width: 0px; background-color: rgb(251, 251, 251); text-decoration-thickness: initial; text-decoration-style: initial; text-decoration-color: initial;&quot;&gt;&lt;/span&gt;&lt;span style=&quot;border-color: var(--border-color); color: rgb(0, 0, 0); font-family: Helvetica; font-size: 12px; font-style: normal; font-variant-ligatures: normal; font-variant-caps: normal; font-weight: 400; letter-spacing: normal; orphans: 2; text-align: left; text-indent: 0px; text-transform: none; widows: 2; word-spacing: 0px; -webkit-text-stroke-width: 0px; background-color: rgb(251, 251, 251); text-decoration-thickness: initial; text-decoration-style: initial; text-decoration-color: initial;&quot;&gt;&lt;/span&gt;&lt;span style=&quot;color: rgb(0, 0, 0); font-family: Helvetica; font-size: 12px; font-style: normal; font-variant-ligatures: normal; font-variant-caps: normal; font-weight: 400; letter-spacing: normal; orphans: 2; text-align: left; text-indent: 0px; text-transform: none; widows: 2; word-spacing: 0px; -webkit-text-stroke-width: 0px; background-color: rgb(251, 251, 251); text-decoration-thickness: initial; text-decoration-style: initial; text-decoration-color: initial; float: none; display: inline !important;&quot;&gt;&amp;nbsp;- connection needs to be via secured channel&lt;/span&gt;&lt;br style=&quot;border-color: var(--border-color); color: rgb(0, 0, 0); font-family: Helvetica; font-size: 12px; font-style: normal; font-variant-ligatures: normal; font-variant-caps: normal; font-weight: 400; letter-spacing: normal; orphans: 2; text-align: left; text-indent: 0px; text-transform: none; widows: 2; word-spacing: 0px; -webkit-text-stroke-width: 0px; background-color: rgb(251, 251, 251); text-decoration-thickness: initial; text-decoration-style: initial; text-decoration-color: initial;&quot;&gt;&lt;span style=&quot;color: rgb(0, 0, 0); font-family: Helvetica; font-size: 12px; font-style: normal; font-variant-ligatures: normal; font-variant-caps: normal; font-weight: 400; letter-spacing: normal; orphans: 2; text-align: left; text-indent: 0px; text-transform: none; widows: 2; word-spacing: 0px; -webkit-text-stroke-width: 0px; background-color: rgb(251, 251, 251); text-decoration-thickness: initial; text-decoration-style: initial; text-decoration-color: initial; float: none; display: inline !important;&quot;&gt;&amp;nbsp;- ace can connect via host pool or ccdt or vip for failover&lt;/span&gt;&lt;br style=&quot;border-color: var(--border-color); color: rgb(0, 0, 0); font-family: Helvetica; font-size: 12px; font-style: normal; font-variant-ligatures: normal; font-variant-caps: normal; font-weight: 400; letter-spacing: normal; orphans: 2; text-align: left; text-indent: 0px; text-transform: none; widows: 2; word-spacing: 0px; -webkit-text-stroke-width: 0px; background-color: rgb(251, 251, 251); text-decoration-thickness: initial; text-decoration-style: initial; text-decoration-color: initial;&quot;&gt;&lt;br style=&quot;border-color: var(--border-color); color: rgb(0, 0, 0); font-family: Helvetica; font-size: 12px; font-style: normal; font-variant-ligatures: normal; font-variant-caps: normal; font-weight: 400; letter-spacing: normal; orphans: 2; text-align: left; text-indent: 0px; text-transform: none; widows: 2; word-spacing: 0px; -webkit-text-stroke-width: 0px; background-color: rgb(251, 251, 251); text-decoration-thickness: initial; text-decoration-style: initial; text-decoration-color: initial;&quot;&gt;&lt;span style=&quot;color: rgb(0, 0, 0); font-family: Helvetica; font-size: 12px; font-style: normal; font-variant-ligatures: normal; font-variant-caps: normal; font-weight: 400; letter-spacing: normal; orphans: 2; text-align: left; text-indent: 0px; text-transform: none; widows: 2; word-spacing: 0px; -webkit-text-stroke-width: 0px; background-color: rgb(251, 251, 251); text-decoration-thickness: initial; text-decoration-style: initial; text-decoration-color: initial; float: none; display: inline !important;&quot;&gt;Full HA ACE with automatic failover and recovery for MQ, no failover for ace, mq clustered&lt;/span&gt;&lt;br style=&quot;border-color: var(--border-color); color: rgb(0, 0, 0); font-family: Helvetica; font-size: 12px; font-style: normal; font-variant-ligatures: normal; font-variant-caps: normal; font-weight: 400; letter-spacing: normal; orphans: 2; text-align: left; text-indent: 0px; text-transform: none; widows: 2; word-spacing: 0px; -webkit-text-stroke-width: 0px; background-color: rgb(251, 251, 251); text-decoration-thickness: initial; text-decoration-style: initial; text-decoration-color: initial;&quot;&gt;&lt;span style=&quot;color: rgb(0, 0, 0); font-family: Helvetica; font-size: 12px; font-style: normal; font-variant-ligatures: normal; font-variant-caps: normal; font-weight: 400; letter-spacing: normal; orphans: 2; text-align: left; text-indent: 0px; text-transform: none; widows: 2; word-spacing: 0px; -webkit-text-stroke-width: 0px; background-color: rgb(251, 251, 251); text-decoration-thickness: initial; text-decoration-style: initial; text-decoration-color: initial; float: none; display: inline !important;&quot;&gt;&amp;nbsp;- Double deploy for both ace and mq&lt;br&gt;&lt;/span&gt;&amp;nbsp;- mq deploys are different, some queues can be dedicated to one qmgr and clustered&lt;br style=&quot;border-color: var(--border-color); color: rgb(0, 0, 0); font-family: Helvetica; font-size: 12px; font-style: normal; font-variant-ligatures: normal; font-variant-caps: normal; font-weight: 400; letter-spacing: normal; orphans: 2; text-align: left; text-indent: 0px; text-transform: none; widows: 2; word-spacing: 0px; -webkit-text-stroke-width: 0px; background-color: rgb(251, 251, 251); text-decoration-thickness: initial; text-decoration-style: initial; text-decoration-color: initial;&quot;&gt;&lt;span style=&quot;border-color: var(--border-color); color: rgb(0, 0, 0); font-family: Helvetica; font-size: 12px; font-style: normal; font-variant-ligatures: normal; font-variant-caps: normal; font-weight: 400; letter-spacing: normal; orphans: 2; text-align: left; text-indent: 0px; text-transform: none; widows: 2; word-spacing: 0px; -webkit-text-stroke-width: 0px; background-color: rgb(251, 251, 251); text-decoration-thickness: initial; text-decoration-style: initial; text-decoration-color: initial;&quot;&gt;&lt;/span&gt;&lt;br style=&quot;border-color: var(--border-color); color: rgb(0, 0, 0); font-family: Helvetica; font-size: 12px; font-style: normal; font-variant-ligatures: normal; font-variant-caps: normal; font-weight: 400; letter-spacing: normal; orphans: 2; text-align: left; text-indent: 0px; text-transform: none; widows: 2; word-spacing: 0px; -webkit-text-stroke-width: 0px; background-color: rgb(251, 251, 251); text-decoration-thickness: initial; text-decoration-style: initial; text-decoration-color: initial;&quot;&gt;&lt;span style=&quot;color: rgb(0, 0, 0); font-family: Helvetica; font-size: 12px; font-style: normal; font-variant-ligatures: normal; font-variant-caps: normal; font-weight: 400; letter-spacing: normal; orphans: 2; text-align: left; text-indent: 0px; text-transform: none; widows: 2; word-spacing: 0px; -webkit-text-stroke-width: 0px; background-color: rgb(251, 251, 251); text-decoration-thickness: initial; text-decoration-style: initial; text-decoration-color: initial; float: none; display: inline !important;&quot;&gt;MQ configuration and data stored on network share&lt;/span&gt;&lt;br style=&quot;border-color: var(--border-color); color: rgb(0, 0, 0); font-family: Helvetica; font-size: 12px; font-style: normal; font-variant-ligatures: normal; font-variant-caps: normal; font-weight: 400; letter-spacing: normal; orphans: 2; text-align: left; text-indent: 0px; text-transform: none; widows: 2; word-spacing: 0px; -webkit-text-stroke-width: 0px; background-color: rgb(251, 251, 251); text-decoration-thickness: initial; text-decoration-style: initial; text-decoration-color: initial;&quot;&gt;&lt;span style=&quot;border-color: var(--border-color); color: rgb(0, 0, 0); font-family: Helvetica; font-size: 12px; font-style: normal; font-variant-ligatures: normal; font-variant-caps: normal; font-weight: 400; letter-spacing: normal; orphans: 2; text-align: left; text-indent: 0px; text-transform: none; widows: 2; word-spacing: 0px; -webkit-text-stroke-width: 0px; background-color: rgb(251, 251, 251); text-decoration-thickness: initial; text-decoration-style: initial; text-decoration-color: initial;&quot;&gt;&lt;/span&gt;&lt;span style=&quot;border-color: var(--border-color); color: rgb(0, 0, 0); font-family: Helvetica; font-size: 12px; font-style: normal; font-variant-ligatures: normal; font-variant-caps: normal; font-weight: 400; letter-spacing: normal; orphans: 2; text-align: left; text-indent: 0px; text-transform: none; widows: 2; word-spacing: 0px; -webkit-text-stroke-width: 0px; background-color: rgb(251, 251, 251); text-decoration-thickness: initial; text-decoration-style: initial; text-decoration-color: initial;&quot;&gt;&lt;/span&gt;&lt;span style=&quot;border-color: var(--border-color); color: rgb(0, 0, 0); font-family: Helvetica; font-size: 12px; font-style: normal; font-variant-ligatures: normal; font-variant-caps: normal; font-weight: 400; letter-spacing: normal; orphans: 2; text-align: left; text-indent: 0px; text-transform: none; widows: 2; word-spacing: 0px; -webkit-text-stroke-width: 0px; background-color: rgb(251, 251, 251); text-decoration-thickness: initial; text-decoration-style: initial; text-decoration-color: initial;&quot;&gt;&lt;/span&gt;&lt;span style=&quot;border-color: var(--border-color); color: rgb(0, 0, 0); font-family: Helvetica; font-size: 12px; font-style: normal; font-variant-ligatures: normal; font-variant-caps: normal; font-weight: 400; letter-spacing: normal; orphans: 2; text-align: left; text-indent: 0px; text-transform: none; widows: 2; word-spacing: 0px; -webkit-text-stroke-width: 0px; background-color: rgb(251, 251, 251); text-decoration-thickness: initial; text-decoration-style: initial; text-decoration-color: initial;&quot;&gt;&lt;/span&gt;&lt;span style=&quot;color: rgb(0, 0, 0); font-family: Helvetica; font-size: 12px; font-style: normal; font-variant-ligatures: normal; font-variant-caps: normal; font-weight: 400; letter-spacing: normal; orphans: 2; text-align: left; text-indent: 0px; text-transform: none; widows: 2; word-spacing: 0px; -webkit-text-stroke-width: 0px; background-color: rgb(251, 251, 251); text-decoration-thickness: initial; text-decoration-style: initial; text-decoration-color: initial; float: none; display: inline !important;&quot;&gt;&amp;nbsp;- Hard dependency on network and nfs&lt;/span&gt;&lt;br style=&quot;border-color: var(--border-color); color: rgb(0, 0, 0); font-family: Helvetica; font-size: 12px; font-style: normal; font-variant-ligatures: normal; font-variant-caps: normal; font-weight: 400; letter-spacing: normal; orphans: 2; text-align: left; text-indent: 0px; text-transform: none; widows: 2; word-spacing: 0px; -webkit-text-stroke-width: 0px; background-color: rgb(251, 251, 251); text-decoration-thickness: initial; text-decoration-style: initial; text-decoration-color: initial;&quot;&gt;&lt;br style=&quot;border-color: var(--border-color); color: rgb(0, 0, 0); font-family: Helvetica; font-size: 12px; font-style: normal; font-variant-ligatures: normal; font-variant-caps: normal; font-weight: 400; letter-spacing: normal; orphans: 2; text-align: left; text-indent: 0px; text-transform: none; widows: 2; word-spacing: 0px; -webkit-text-stroke-width: 0px; background-color: rgb(251, 251, 251); text-decoration-thickness: initial; text-decoration-style: initial; text-decoration-color: initial;&quot;&gt;&lt;span style=&quot;color: rgb(0, 0, 0); font-family: Helvetica; font-size: 12px; font-style: normal; font-variant-ligatures: normal; font-variant-caps: normal; font-weight: 400; letter-spacing: normal; orphans: 2; text-align: left; text-indent: 0px; text-transform: none; widows: 2; word-spacing: 0px; -webkit-text-stroke-width: 0px; background-color: rgb(251, 251, 251); text-decoration-thickness: initial; text-decoration-style: initial; text-decoration-color: initial; float: none; display: inline !important;&quot;&gt;Loadbalancer can round-robin. If MQ also exposed via LB it needs to follow the failovers for both instances&lt;/span&gt;&lt;br style=&quot;border-color: var(--border-color); color: rgb(0, 0, 0); font-family: Helvetica; font-size: 12px; font-style: normal; font-variant-ligatures: normal; font-variant-caps: normal; font-weight: 400; letter-spacing: normal; orphans: 2; text-align: left; text-indent: 0px; text-transform: none; widows: 2; word-spacing: 0px; -webkit-text-stroke-width: 0px; background-color: rgb(251, 251, 251); text-decoration-thickness: initial; text-decoration-style: initial; text-decoration-color: initial;&quot;&gt;&lt;br style=&quot;border-color: var(--border-color); color: rgb(0, 0, 0); font-family: Helvetica; font-size: 12px; font-style: normal; font-variant-ligatures: normal; font-variant-caps: normal; font-weight: 400; letter-spacing: normal; orphans: 2; text-align: left; text-indent: 0px; text-transform: none; widows: 2; word-spacing: 0px; -webkit-text-stroke-width: 0px; background-color: rgb(251, 251, 251); text-decoration-thickness: initial; text-decoration-style: initial; text-decoration-color: initial;&quot;&gt;&lt;span style=&quot;color: rgb(0, 0, 0); font-family: Helvetica; font-size: 12px; font-style: normal; font-variant-ligatures: normal; font-variant-caps: normal; font-weight: 400; letter-spacing: normal; orphans: 2; text-align: left; text-indent: 0px; text-transform: none; widows: 2; word-spacing: 0px; -webkit-text-stroke-width: 0px; background-color: rgb(251, 251, 251); text-decoration-thickness: initial; text-decoration-style: initial; text-decoration-color: initial; float: none; display: inline !important;&quot;&gt;Licences for both instances are required&lt;/span&gt;&lt;br style=&quot;border-color: var(--border-color); color: rgb(0, 0, 0); font-family: Helvetica; font-size: 12px; font-style: normal; font-variant-ligatures: normal; font-variant-caps: normal; font-weight: 400; letter-spacing: normal; orphans: 2; text-align: left; text-indent: 0px; text-transform: none; widows: 2; word-spacing: 0px; -webkit-text-stroke-width: 0px; background-color: rgb(251, 251, 251); text-decoration-thickness: initial; text-decoration-style: initial; text-decoration-color: initial;&quot;&gt;&lt;br style=&quot;border-color: var(--border-color); color: rgb(0, 0, 0); font-family: Helvetica; font-size: 12px; font-style: normal; font-variant-ligatures: normal; font-variant-caps: normal; font-weight: 400; letter-spacing: normal; orphans: 2; text-align: left; text-indent: 0px; text-transform: none; widows: 2; word-spacing: 0px; -webkit-text-stroke-width: 0px; background-color: rgb(251, 251, 251); text-decoration-thickness: initial; text-decoration-style: initial; text-decoration-color: initial;&quot;&gt;&lt;span style=&quot;color: rgb(0, 0, 0); font-family: Helvetica; font-size: 12px; font-style: normal; font-variant-ligatures: normal; font-variant-caps: normal; font-weight: 400; letter-spacing: normal; orphans: 2; text-align: left; text-indent: 0px; text-transform: none; widows: 2; word-spacing: 0px; -webkit-text-stroke-width: 0px; background-color: rgb(251, 251, 251); text-decoration-thickness: initial; text-decoration-style: initial; text-decoration-color: initial; float: none; display: inline !important;&quot;&gt;Each ACE instance connects to only 1 qmgr. By clustering queues, you only have 1 copy that holds all the data.&lt;br&gt;&lt;/span&gt;This can help guarantee message order. You can also keep queues local this not exposing them to the other ACE instance&lt;br&gt;Should one mq instance failover because the server crashes, that mq instance will not be read if the queues are not clustered.&lt;br&gt;Data from those queues need to be copied to the other instance&lt;br style=&quot;border-color: var(--border-color); color: rgb(0, 0, 0); font-family: Helvetica; font-size: 12px; font-style: normal; font-variant-ligatures: normal; font-variant-caps: normal; font-weight: 400; letter-spacing: normal; orphans: 2; text-align: left; text-indent: 0px; text-transform: none; widows: 2; word-spacing: 0px; -webkit-text-stroke-width: 0px; background-color: rgb(251, 251, 251); text-decoration-thickness: initial; text-decoration-style: initial; text-decoration-color: initial;&quot;&gt;&lt;br style=&quot;border-color: var(--border-color); color: rgb(0, 0, 0); font-family: Helvetica; font-size: 12px; font-style: normal; font-variant-ligatures: normal; font-variant-caps: normal; font-weight: 400; letter-spacing: normal; orphans: 2; text-align: left; text-indent: 0px; text-transform: none; widows: 2; word-spacing: 0px; -webkit-text-stroke-width: 0px; background-color: rgb(251, 251, 251); text-decoration-thickness: initial; text-decoration-style: initial; text-decoration-color: initial;&quot;&gt;&lt;span style=&quot;color: rgb(0, 0, 0); font-family: Helvetica; font-size: 12px; font-style: normal; font-variant-ligatures: normal; font-variant-caps: normal; font-weight: 400; letter-spacing: normal; orphans: 2; text-align: left; text-indent: 0px; text-transform: none; widows: 2; word-spacing: 0px; -webkit-text-stroke-width: 0px; background-color: rgb(251, 251, 251); text-decoration-thickness: initial; text-decoration-style: initial; text-decoration-color: initial; float: none; display: inline !important;&quot;&gt;Upgrades need to be performed in quick succesion, MI works best at identical service levels&lt;/span&gt;&lt;br style=&quot;border-color: var(--border-color); color: rgb(0, 0, 0); font-family: Helvetica; font-size: 12px; font-style: normal; font-variant-ligatures: normal; font-variant-caps: normal; font-weight: 400; letter-spacing: normal; orphans: 2; text-align: left; text-indent: 0px; text-transform: none; widows: 2; word-spacing: 0px; -webkit-text-stroke-width: 0px; background-color: rgb(251, 251, 251); text-decoration-thickness: initial; text-decoration-style: initial; text-decoration-color: initial;&quot;&gt;&lt;br style=&quot;border-color: var(--border-color); color: rgb(0, 0, 0); font-family: Helvetica; font-size: 12px; font-style: normal; font-variant-ligatures: normal; font-variant-caps: normal; font-weight: 400; letter-spacing: normal; orphans: 2; text-align: left; text-indent: 0px; text-transform: none; widows: 2; word-spacing: 0px; -webkit-text-stroke-width: 0px; background-color: rgb(251, 251, 251); text-decoration-thickness: initial; text-decoration-style: initial; text-decoration-color: initial;&quot;&gt;&lt;br style=&quot;border-color: var(--border-color); color: rgb(0, 0, 0); font-family: Helvetica; font-size: 12px; font-style: normal; font-variant-ligatures: normal; font-variant-caps: normal; font-weight: 400; letter-spacing: normal; orphans: 2; text-align: left; text-indent: 0px; text-transform: none; widows: 2; word-spacing: 0px; -webkit-text-stroke-width: 0px; background-color: rgb(251, 251, 251); text-decoration-thickness: initial; text-decoration-style: initial; text-decoration-color: initial;&quot;&gt;&lt;span style=&quot;color: rgb(0, 0, 0); font-family: Helvetica; font-size: 12px; font-style: normal; font-variant-ligatures: normal; font-variant-caps: normal; font-weight: 400; letter-spacing: normal; orphans: 2; text-align: left; text-indent: 0px; text-transform: none; widows: 2; word-spacing: 0px; -webkit-text-stroke-width: 0px; background-color: rgb(251, 251, 251); text-decoration-thickness: initial; text-decoration-style: initial; text-decoration-color: initial; float: none; display: inline !important;&quot;&gt;Thoughts&lt;/span&gt;&lt;br style=&quot;border-color: var(--border-color); color: rgb(0, 0, 0); font-family: Helvetica; font-size: 12px; font-style: normal; font-variant-ligatures: normal; font-variant-caps: normal; font-weight: 400; letter-spacing: normal; orphans: 2; text-align: left; text-indent: 0px; text-transform: none; widows: 2; word-spacing: 0px; -webkit-text-stroke-width: 0px; background-color: rgb(251, 251, 251); text-decoration-thickness: initial; text-decoration-style: initial; text-decoration-color: initial;&quot;&gt;&lt;span style=&quot;color: rgb(0, 0, 0); font-family: Helvetica; font-size: 12px; font-style: normal; font-variant-ligatures: normal; font-variant-caps: normal; font-weight: 400; letter-spacing: normal; orphans: 2; text-align: left; text-indent: 0px; text-transform: none; widows: 2; word-spacing: 0px; -webkit-text-stroke-width: 0px; background-color: rgb(251, 251, 251); text-decoration-thickness: initial; text-decoration-style: initial; text-decoration-color: initial; float: none; display: inline !important;&quot;&gt;-------------&lt;/span&gt;&lt;br style=&quot;border-color: var(--border-color); color: rgb(0, 0, 0); font-family: Helvetica; font-size: 12px; font-style: normal; font-variant-ligatures: normal; font-variant-caps: normal; font-weight: 400; letter-spacing: normal; orphans: 2; text-align: left; text-indent: 0px; text-transform: none; widows: 2; word-spacing: 0px; -webkit-text-stroke-width: 0px; background-color: rgb(251, 251, 251); text-decoration-thickness: initial; text-decoration-style: initial; text-decoration-color: initial;&quot;&gt;&lt;span style=&quot;color: rgb(0, 0, 0); font-family: Helvetica; font-size: 12px; font-style: normal; font-variant-ligatures: normal; font-variant-caps: normal; font-weight: 400; letter-spacing: normal; orphans: 2; text-align: left; text-indent: 0px; text-transform: none; widows: 2; word-spacing: 0px; -webkit-text-stroke-width: 0px; background-color: rgb(251, 251, 251); text-decoration-thickness: initial; text-decoration-style: initial; text-decoration-color: initial; float: none; display: inline !important;&quot;&gt;After an automatic failover, manual intervention is needed to see why the instance failed over.&lt;/span&gt;&lt;br style=&quot;border-color: var(--border-color); color: rgb(0, 0, 0); font-family: Helvetica; font-size: 12px; font-style: normal; font-variant-ligatures: normal; font-variant-caps: normal; font-weight: 400; letter-spacing: normal; orphans: 2; text-align: left; text-indent: 0px; text-transform: none; widows: 2; word-spacing: 0px; -webkit-text-stroke-width: 0px; background-color: rgb(251, 251, 251); text-decoration-thickness: initial; text-decoration-style: initial; text-decoration-color: initial;&quot;&gt;&lt;span style=&quot;color: rgb(0, 0, 0); font-family: Helvetica; font-size: 12px; font-style: normal; font-variant-ligatures: normal; font-variant-caps: normal; font-weight: 400; letter-spacing: normal; orphans: 2; text-align: left; text-indent: 0px; text-transform: none; widows: 2; word-spacing: 0px; -webkit-text-stroke-width: 0px; background-color: rgb(251, 251, 251); text-decoration-thickness: initial; text-decoration-style: initial; text-decoration-color: initial; float: none; display: inline !important;&quot;&gt;Unless the original issue is solved you can&#39;t switch back&lt;/span&gt;&lt;br style=&quot;border-color: var(--border-color); color: rgb(0, 0, 0); font-family: Helvetica; font-size: 12px; font-style: normal; font-variant-ligatures: normal; font-variant-caps: normal; font-weight: 400; letter-spacing: normal; orphans: 2; text-align: left; text-indent: 0px; text-transform: none; widows: 2; word-spacing: 0px; -webkit-text-stroke-width: 0px; background-color: rgb(251, 251, 251); text-decoration-thickness: initial; text-decoration-style: initial; text-decoration-color: initial;&quot;&gt;&lt;br style=&quot;border-color: var(--border-color); color: rgb(0, 0, 0); font-family: Helvetica; font-size: 12px; font-style: normal; font-variant-ligatures: normal; font-variant-caps: normal; font-weight: 400; letter-spacing: normal; orphans: 2; text-align: left; text-indent: 0px; text-transform: none; widows: 2; word-spacing: 0px; -webkit-text-stroke-width: 0px; background-color: rgb(251, 251, 251); text-decoration-thickness: initial; text-decoration-style: initial; text-decoration-color: initial;&quot;&gt;&lt;span style=&quot;color: rgb(0, 0, 0); font-family: Helvetica; font-size: 12px; font-style: normal; font-variant-ligatures: normal; font-variant-caps: normal; font-weight: 400; letter-spacing: normal; orphans: 2; text-align: left; text-indent: 0px; text-transform: none; widows: 2; word-spacing: 0px; -webkit-text-stroke-width: 0px; background-color: rgb(251, 251, 251); text-decoration-thickness: initial; text-decoration-style: initial; text-decoration-color: initial; float: none; display: inline !important;&quot;&gt;If one of the servers crashes, you end up with 1 ace and 2 mq instances, kinda overkill&lt;br&gt;&lt;/span&gt;All non-clustered queues will not be read anymore.&lt;br style=&quot;border-color: var(--border-color); color: rgb(0, 0, 0); font-family: Helvetica; font-size: 12px; font-style: normal; font-variant-ligatures: normal; font-variant-caps: normal; font-weight: 400; letter-spacing: normal; orphans: 2; text-align: left; text-indent: 0px; text-transform: none; widows: 2; word-spacing: 0px; -webkit-text-stroke-width: 0px; background-color: rgb(251, 251, 251); text-decoration-thickness: initial; text-decoration-style: initial; text-decoration-color: initial;&quot;&gt;&lt;br style=&quot;border-color: var(--border-color); color: rgb(0, 0, 0); font-family: Helvetica; font-size: 12px; font-style: normal; font-variant-ligatures: normal; font-variant-caps: normal; font-weight: 400; letter-spacing: normal; orphans: 2; text-align: left; text-indent: 0px; text-transform: none; widows: 2; word-spacing: 0px; -webkit-text-stroke-width: 0px; background-color: rgb(251, 251, 251); text-decoration-thickness: initial; text-decoration-style: initial; text-decoration-color: initial;&quot;&gt;&lt;span style=&quot;color: rgb(0, 0, 0); font-family: Helvetica; font-size: 12px; font-style: normal; font-variant-ligatures: normal; font-variant-caps: normal; font-weight: 400; letter-spacing: normal; orphans: 2; text-align: left; text-indent: 0px; text-transform: none; widows: 2; word-spacing: 0px; -webkit-text-stroke-width: 0px; background-color: rgb(251, 251, 251); text-decoration-thickness: initial; text-decoration-style: initial; text-decoration-color: initial; float: none; display: inline !important;&quot;&gt;The nfs and network could prove to be a big bottleneck.&lt;/span&gt;&lt;br style=&quot;border-color: var(--border-color); color: rgb(0, 0, 0); font-family: Helvetica; font-size: 12px; font-style: normal; font-variant-ligatures: normal; font-variant-caps: normal; font-weight: 400; letter-spacing: normal; orphans: 2; text-align: left; text-indent: 0px; text-transform: none; widows: 2; word-spacing: 0px; -webkit-text-stroke-width: 0px; background-color: rgb(251, 251, 251); text-decoration-thickness: initial; text-decoration-style: initial; text-decoration-color: initial;&quot;&gt;&lt;span style=&quot;color: rgb(0, 0, 0); font-family: Helvetica; font-size: 12px; font-style: normal; font-variant-ligatures: normal; font-variant-caps: normal; font-weight: 400; letter-spacing: normal; orphans: 2; text-align: left; text-indent: 0px; text-transform: none; widows: 2; word-spacing: 0px; -webkit-text-stroke-width: 0px; background-color: rgb(251, 251, 251); text-decoration-thickness: initial; text-decoration-style: initial; text-decoration-color: initial; float: none; display: inline !important;&quot;&gt;&amp;nbsp;- All persistent mq messages are written to the nfs, so any network and nfs latency will show in message throughput&lt;/span&gt;&lt;br style=&quot;border-color: var(--border-color); color: rgb(0, 0, 0); font-family: Helvetica; font-size: 12px; font-style: normal; font-variant-ligatures: normal; font-variant-caps: normal; font-weight: 400; letter-spacing: normal; orphans: 2; text-align: left; text-indent: 0px; text-transform: none; widows: 2; word-spacing: 0px; -webkit-text-stroke-width: 0px; background-color: rgb(251, 251, 251); text-decoration-thickness: initial; text-decoration-style: initial; text-decoration-color: initial;&quot;&gt;&lt;br style=&quot;border-color: var(--border-color); color: rgb(0, 0, 0); font-family: Helvetica; font-size: 12px; font-style: normal; font-variant-ligatures: normal; font-variant-caps: normal; font-weight: 400; letter-spacing: normal; orphans: 2; text-align: left; text-indent: 0px; text-transform: none; widows: 2; word-spacing: 0px; -webkit-text-stroke-width: 0px; background-color: rgb(251, 251, 251); text-decoration-thickness: initial; text-decoration-style: initial; text-decoration-color: initial;&quot;&gt;&lt;br style=&quot;border-color: var(--border-color); color: rgb(0, 0, 0); font-family: Helvetica; font-size: 12px; font-style: normal; font-variant-ligatures: normal; font-variant-caps: normal; font-weight: 400; letter-spacing: normal; orphans: 2; text-align: left; text-indent: 0px; text-transform: none; widows: 2; word-spacing: 0px; -webkit-text-stroke-width: 0px; background-color: rgb(251, 251, 251); text-decoration-thickness: initial; text-decoration-style: initial; text-decoration-color: initial;&quot;&gt;&lt;span style=&quot;color: rgb(0, 0, 0); font-family: Helvetica; font-size: 12px; font-style: normal; font-variant-ligatures: normal; font-variant-caps: normal; font-weight: 400; letter-spacing: normal; orphans: 2; text-align: left; text-indent: 0px; text-transform: none; widows: 2; word-spacing: 0px; -webkit-text-stroke-width: 0px; background-color: rgb(251, 251, 251); text-decoration-thickness: initial; text-decoration-style: initial; text-decoration-color: initial; float: none; display: inline !important;&quot;&gt;Conclusion&lt;/span&gt;&lt;br style=&quot;border-color: var(--border-color); color: rgb(0, 0, 0); font-family: Helvetica; font-size: 12px; font-style: normal; font-variant-ligatures: normal; font-variant-caps: normal; font-weight: 400; letter-spacing: normal; orphans: 2; text-align: left; text-indent: 0px; text-transform: none; widows: 2; word-spacing: 0px; -webkit-text-stroke-width: 0px; background-color: rgb(251, 251, 251); text-decoration-thickness: initial; text-decoration-style: initial; text-decoration-color: initial;&quot;&gt;&lt;span style=&quot;color: rgb(0, 0, 0); font-family: Helvetica; font-size: 12px; font-style: normal; font-variant-ligatures: normal; font-variant-caps: normal; font-weight: 400; letter-spacing: normal; orphans: 2; text-align: left; text-indent: 0px; text-transform: none; widows: 2; word-spacing: 0px; -webkit-text-stroke-width: 0px; background-color: rgb(251, 251, 251); text-decoration-thickness: initial; text-decoration-style: initial; text-decoration-color: initial; float: none; display: inline !important;&quot;&gt;---------------&lt;/span&gt;&lt;br style=&quot;border-color: var(--border-color); color: rgb(0, 0, 0); font-family: Helvetica; font-size: 12px; font-style: normal; font-variant-ligatures: normal; font-variant-caps: normal; font-weight: 400; letter-spacing: normal; orphans: 2; text-align: left; text-indent: 0px; text-transform: none; widows: 2; word-spacing: 0px; -webkit-text-stroke-width: 0px; background-color: rgb(251, 251, 251); text-decoration-thickness: initial; text-decoration-style: initial; text-decoration-color: initial;&quot;&gt;&lt;span style=&quot;color: rgb(0, 0, 0); font-family: Helvetica; font-size: 12px; font-style: normal; font-variant-ligatures: normal; font-variant-caps: normal; font-weight: 400; letter-spacing: normal; orphans: 2; text-align: left; text-indent: 0px; text-transform: none; widows: 2; word-spacing: 0px; -webkit-text-stroke-width: 0px; background-color: rgb(251, 251, 251); text-decoration-thickness: initial; text-decoration-style: initial; text-decoration-color: initial; float: none; display: inline !important;&quot;&gt;Double capacity&lt;br&gt;&lt;/span&gt;&lt;br style=&quot;border-color: var(--border-color); color: rgb(0, 0, 0); font-family: Helvetica; font-size: 12px; font-style: normal; font-variant-ligatures: normal; font-variant-caps: normal; font-weight: 400; letter-spacing: normal; orphans: 2; text-align: left; text-indent: 0px; text-transform: none; widows: 2; word-spacing: 0px; -webkit-text-stroke-width: 0px; background-color: rgb(251, 251, 251); text-decoration-thickness: initial; text-decoration-style: initial; text-decoration-color: initial;&quot;&gt;&lt;span style=&quot;color: rgb(0, 0, 0); font-family: Helvetica; font-size: 12px; font-style: normal; font-variant-ligatures: normal; font-variant-caps: normal; font-weight: 400; letter-spacing: normal; orphans: 2; text-align: left; text-indent: 0px; text-transform: none; widows: 2; word-spacing: 0px; -webkit-text-stroke-width: 0px; background-color: rgb(251, 251, 251); text-decoration-thickness: initial; text-decoration-style: initial; text-decoration-color: initial; float: none; display: inline !important;&quot;&gt;MQ is also throttled by the nfs storage, should it be impacted somehow.&lt;/span&gt;&lt;br style=&quot;border-color: var(--border-color); color: rgb(0, 0, 0); font-family: Helvetica; font-size: 12px; font-style: normal; font-variant-ligatures: normal; font-variant-caps: normal; font-weight: 400; letter-spacing: normal; orphans: 2; text-align: left; text-indent: 0px; text-transform: none; widows: 2; word-spacing: 0px; -webkit-text-stroke-width: 0px; background-color: rgb(251, 251, 251); text-decoration-thickness: initial; text-decoration-style: initial; text-decoration-color: initial;&quot;&gt;&lt;br style=&quot;border-color: var(--border-color); color: rgb(0, 0, 0); font-family: Helvetica; font-size: 12px; font-style: normal; font-variant-ligatures: normal; font-variant-caps: normal; font-weight: 400; letter-spacing: normal; orphans: 2; text-align: left; text-indent: 0px; text-transform: none; widows: 2; word-spacing: 0px; -webkit-text-stroke-width: 0px; background-color: rgb(251, 251, 251); text-decoration-thickness: initial; text-decoration-style: initial; text-decoration-color: initial;&quot;&gt;&lt;span style=&quot;color: rgb(0, 0, 0); font-family: Helvetica; font-size: 12px; font-style: normal; font-variant-ligatures: normal; font-variant-caps: normal; font-weight: 400; letter-spacing: normal; orphans: 2; text-align: left; text-indent: 0px; text-transform: none; widows: 2; word-spacing: 0px; -webkit-text-stroke-width: 0px; background-color: rgb(251, 251, 251); text-decoration-thickness: initial; text-decoration-style: initial; text-decoration-color: initial; float: none; display: inline !important;&quot;&gt;MQ and ACE loosly coupled&lt;/span&gt;&lt;br style=&quot;border-color: var(--border-color); color: rgb(0, 0, 0); font-family: Helvetica; font-size: 12px; font-style: normal; font-variant-ligatures: normal; font-variant-caps: normal; font-weight: 400; letter-spacing: normal; orphans: 2; text-align: left; text-indent: 0px; text-transform: none; widows: 2; word-spacing: 0px; -webkit-text-stroke-width: 0px; background-color: rgb(251, 251, 251); text-decoration-thickness: initial; text-decoration-style: initial; text-decoration-color: initial;&quot;&gt;&lt;br style=&quot;border-color: var(--border-color); color: rgb(0, 0, 0); font-family: Helvetica; font-size: 12px; font-style: normal; font-variant-ligatures: normal; font-variant-caps: normal; font-weight: 400; letter-spacing: normal; orphans: 2; text-align: left; text-indent: 0px; text-transform: none; widows: 2; word-spacing: 0px; -webkit-text-stroke-width: 0px; background-color: rgb(251, 251, 251); text-decoration-thickness: initial; text-decoration-style: initial; text-decoration-color: initial;&quot;&gt;&lt;span style=&quot;color: rgb(0, 0, 0); font-family: Helvetica; font-size: 12px; font-style: normal; font-variant-ligatures: normal; font-variant-caps: normal; font-weight: 400; letter-spacing: normal; orphans: 2; text-align: left; text-indent: 0px; text-transform: none; widows: 2; word-spacing: 0px; -webkit-text-stroke-width: 0px; background-color: rgb(251, 251, 251); text-decoration-thickness: initial; text-decoration-style: initial; text-decoration-color: initial; float: none; display: inline !important;&quot;&gt;No data is lost or needs to be recovered manually per mq instance&lt;br&gt;If one instance does a failover, data might need to be copied to the other instance, can be automated&lt;br&gt;&lt;/span&gt;" style="text;whiteSpace=wrap;html=1;" parent="jw2MCA0iwe1ytM3KUruY-1" vertex="1">
          <mxGeometry x="650" y="-910" width="820" height="880" as="geometry" />
        </mxCell>
        <mxCell id="O_4XDmXSOM4YjlK7gw8Y-0" value="Dual Active ACE &amp;amp; Cross Multi Instance MQ &lt;font color=&quot;#cc0000&quot;&gt;Cluster&lt;/font&gt;" style="text;html=1;strokeColor=#d79b00;fillColor=#ffe6cc;align=center;verticalAlign=middle;whiteSpace=wrap;rounded=0;fontSize=27;" vertex="1" parent="jw2MCA0iwe1ytM3KUruY-1">
          <mxGeometry x="30" y="-1070" width="750" height="60" as="geometry" />
        </mxCell>
        <mxCell id="sG3gCpULEX420Eb75PEE-0" value="LocalQ1" style="sketch=0;outlineConnect=0;fontColor=#232F3E;gradientColor=none;strokeColor=#232F3E;fillColor=#ffffff;dashed=0;verticalLabelPosition=bottom;verticalAlign=top;align=center;html=1;fontSize=12;fontStyle=0;aspect=fixed;shape=mxgraph.aws4.resourceIcon;resIcon=mxgraph.aws4.queue;" vertex="1" parent="jw2MCA0iwe1ytM3KUruY-1">
          <mxGeometry x="1440" y="-820" width="60" height="60" as="geometry" />
        </mxCell>
        <mxCell id="sG3gCpULEX420Eb75PEE-1" value="LocalQ2" style="sketch=0;outlineConnect=0;fontColor=#232F3E;gradientColor=none;strokeColor=#232F3E;fillColor=#ffffff;dashed=0;verticalLabelPosition=bottom;verticalAlign=top;align=center;html=1;fontSize=12;fontStyle=0;aspect=fixed;shape=mxgraph.aws4.resourceIcon;resIcon=mxgraph.aws4.queue;" vertex="1" parent="jw2MCA0iwe1ytM3KUruY-1">
          <mxGeometry x="1549" y="-820" width="60" height="60" as="geometry" />
        </mxCell>
        <mxCell id="sG3gCpULEX420Eb75PEE-2" value="ClusterQ1" style="sketch=0;outlineConnect=0;fontColor=#232F3E;gradientColor=none;strokeColor=#232F3E;fillColor=#ffffff;dashed=0;verticalLabelPosition=bottom;verticalAlign=top;align=center;html=1;fontSize=12;fontStyle=0;aspect=fixed;shape=mxgraph.aws4.resourceIcon;resIcon=mxgraph.aws4.queue;" vertex="1" parent="jw2MCA0iwe1ytM3KUruY-1">
          <mxGeometry x="1440" y="-690" width="60" height="60" as="geometry" />
        </mxCell>
        <mxCell id="sG3gCpULEX420Eb75PEE-3" value="ClusterQ2" style="sketch=0;outlineConnect=0;fontColor=#232F3E;gradientColor=none;strokeColor=#232F3E;fillColor=#ffffff;dashed=0;verticalLabelPosition=bottom;verticalAlign=top;align=center;html=1;fontSize=12;fontStyle=0;aspect=fixed;shape=mxgraph.aws4.resourceIcon;resIcon=mxgraph.aws4.queue;" vertex="1" parent="jw2MCA0iwe1ytM3KUruY-1">
          <mxGeometry x="1920" y="-680" width="60" height="60" as="geometry" />
        </mxCell>
        <mxCell id="sG3gCpULEX420Eb75PEE-6" value="LocalQ1" style="sketch=0;outlineConnect=0;fontColor=#232F3E;gradientColor=none;strokeColor=#232F3E;fillColor=#ffffff;dashed=0;verticalLabelPosition=bottom;verticalAlign=top;align=center;html=1;fontSize=12;fontStyle=0;aspect=fixed;shape=mxgraph.aws4.resourceIcon;resIcon=mxgraph.aws4.queue;" vertex="1" parent="jw2MCA0iwe1ytM3KUruY-1">
          <mxGeometry x="1800" y="-810" width="60" height="60" as="geometry" />
        </mxCell>
        <mxCell id="sG3gCpULEX420Eb75PEE-7" value="LocalQ2" style="sketch=0;outlineConnect=0;fontColor=#232F3E;gradientColor=none;strokeColor=#232F3E;fillColor=#ffffff;dashed=0;verticalLabelPosition=bottom;verticalAlign=top;align=center;html=1;fontSize=12;fontStyle=0;aspect=fixed;shape=mxgraph.aws4.resourceIcon;resIcon=mxgraph.aws4.queue;" vertex="1" parent="jw2MCA0iwe1ytM3KUruY-1">
          <mxGeometry x="1910" y="-810" width="60" height="60" as="geometry" />
        </mxCell>
        <mxCell id="sG3gCpULEX420Eb75PEE-15" style="rounded=0;orthogonalLoop=1;jettySize=auto;html=1;fillColor=#60a917;strokeColor=#2D7600;strokeWidth=2;" edge="1" parent="jw2MCA0iwe1ytM3KUruY-1" source="sG3gCpULEX420Eb75PEE-9" target="sG3gCpULEX420Eb75PEE-2">
          <mxGeometry relative="1" as="geometry" />
        </mxCell>
        <mxCell id="sG3gCpULEX420Eb75PEE-16" style="rounded=0;orthogonalLoop=1;jettySize=auto;html=1;strokeColor=#2D7600;fillColor=#60a917;strokeWidth=2;" edge="1" parent="jw2MCA0iwe1ytM3KUruY-1" source="sG3gCpULEX420Eb75PEE-9" target="sG3gCpULEX420Eb75PEE-0">
          <mxGeometry relative="1" as="geometry" />
        </mxCell>
        <mxCell id="sG3gCpULEX420Eb75PEE-17" style="rounded=0;orthogonalLoop=1;jettySize=auto;html=1;strokeColor=#2D7600;fillColor=#60a917;strokeWidth=2;" edge="1" parent="jw2MCA0iwe1ytM3KUruY-1" source="sG3gCpULEX420Eb75PEE-9" target="sG3gCpULEX420Eb75PEE-1">
          <mxGeometry relative="1" as="geometry" />
        </mxCell>
        <mxCell id="sG3gCpULEX420Eb75PEE-18" style="rounded=0;orthogonalLoop=1;jettySize=auto;html=1;strokeColor=#2D7600;fillColor=#60a917;strokeWidth=2;" edge="1" parent="jw2MCA0iwe1ytM3KUruY-1" source="sG3gCpULEX420Eb75PEE-9" target="sG3gCpULEX420Eb75PEE-3">
          <mxGeometry relative="1" as="geometry" />
        </mxCell>
        <mxCell id="sG3gCpULEX420Eb75PEE-9" value="ACE Application" style="shape=process;whiteSpace=wrap;html=1;backgroundOutline=1;" vertex="1" parent="jw2MCA0iwe1ytM3KUruY-1">
          <mxGeometry x="1480" y="-380" width="120" height="60" as="geometry" />
        </mxCell>
        <mxCell id="sG3gCpULEX420Eb75PEE-19" style="rounded=0;orthogonalLoop=1;jettySize=auto;html=1;fillColor=#1ba1e2;strokeColor=#006EAF;strokeWidth=2;" edge="1" parent="jw2MCA0iwe1ytM3KUruY-1" source="sG3gCpULEX420Eb75PEE-10" target="sG3gCpULEX420Eb75PEE-3">
          <mxGeometry relative="1" as="geometry" />
        </mxCell>
        <mxCell id="sG3gCpULEX420Eb75PEE-20" style="rounded=0;orthogonalLoop=1;jettySize=auto;html=1;strokeColor=#006EAF;fillColor=#1ba1e2;strokeWidth=2;" edge="1" parent="jw2MCA0iwe1ytM3KUruY-1" source="sG3gCpULEX420Eb75PEE-10" target="sG3gCpULEX420Eb75PEE-7">
          <mxGeometry relative="1" as="geometry" />
        </mxCell>
        <mxCell id="sG3gCpULEX420Eb75PEE-21" style="rounded=0;orthogonalLoop=1;jettySize=auto;html=1;strokeColor=#006EAF;fillColor=#1ba1e2;strokeWidth=2;" edge="1" parent="jw2MCA0iwe1ytM3KUruY-1" source="sG3gCpULEX420Eb75PEE-10" target="sG3gCpULEX420Eb75PEE-6">
          <mxGeometry relative="1" as="geometry" />
        </mxCell>
        <mxCell id="sG3gCpULEX420Eb75PEE-22" style="rounded=0;orthogonalLoop=1;jettySize=auto;html=1;strokeColor=#006EAF;fillColor=#1ba1e2;strokeWidth=2;" edge="1" parent="jw2MCA0iwe1ytM3KUruY-1" source="sG3gCpULEX420Eb75PEE-10" target="sG3gCpULEX420Eb75PEE-2">
          <mxGeometry relative="1" as="geometry" />
        </mxCell>
        <mxCell id="sG3gCpULEX420Eb75PEE-10" value="ACE Application" style="shape=process;whiteSpace=wrap;html=1;backgroundOutline=1;" vertex="1" parent="jw2MCA0iwe1ytM3KUruY-1">
          <mxGeometry x="1850" y="-380" width="120" height="60" as="geometry" />
        </mxCell>
      </root>
    </mxGraphModel>
  </diagram>
  <diagram name="DA ACE &amp; DA MQ" id="a72uyr0JLqgzurL86Py2">
    <mxGraphModel dx="2074" dy="2304" grid="1" gridSize="10" guides="1" tooltips="1" connect="1" arrows="1" fold="1" page="1" pageScale="1" pageWidth="850" pageHeight="1100" math="0" shadow="0">
      <root>
        <mxCell id="Zo5mWJ4MHcHmz8Afzjk7-0" />
        <mxCell id="Zo5mWJ4MHcHmz8Afzjk7-1" parent="Zo5mWJ4MHcHmz8Afzjk7-0" />
        <mxCell id="Zo5mWJ4MHcHmz8Afzjk7-2" value="SERVER 1" style="rounded=1;whiteSpace=wrap;html=1;verticalAlign=top;" parent="Zo5mWJ4MHcHmz8Afzjk7-1" vertex="1">
          <mxGeometry x="70" y="-800" width="140" height="410" as="geometry" />
        </mxCell>
        <mxCell id="Zo5mWJ4MHcHmz8Afzjk7-3" value="SERVER 2" style="rounded=1;whiteSpace=wrap;html=1;verticalAlign=top;" parent="Zo5mWJ4MHcHmz8Afzjk7-1" vertex="1">
          <mxGeometry x="420" y="-800" width="140" height="400" as="geometry" />
        </mxCell>
        <mxCell id="DLhl1u2aY-pgGWuRLp_V-1" style="edgeStyle=none;rounded=0;jumpStyle=arc;orthogonalLoop=1;jettySize=auto;html=1;strokeWidth=2;entryX=1;entryY=0.5;entryDx=0;entryDy=0;strokeColor=#6c8ebf;fillColor=#dae8fc;exitX=0;exitY=0.5;exitDx=0;exitDy=0;" parent="Zo5mWJ4MHcHmz8Afzjk7-1" source="Zo5mWJ4MHcHmz8Afzjk7-4" target="Zo5mWJ4MHcHmz8Afzjk7-12" edge="1">
          <mxGeometry relative="1" as="geometry">
            <mxPoint x="180" y="-500" as="targetPoint" />
          </mxGeometry>
        </mxCell>
        <mxCell id="Zo5mWJ4MHcHmz8Afzjk7-4" value="ACE" style="image;html=1;image=img/lib/clip_art/computers/Virtual_Application_128x128.png" parent="Zo5mWJ4MHcHmz8Afzjk7-1" vertex="1">
          <mxGeometry x="460" y="-760" width="80" height="80" as="geometry" />
        </mxCell>
        <mxCell id="DLhl1u2aY-pgGWuRLp_V-0" style="edgeStyle=none;rounded=0;jumpStyle=arc;orthogonalLoop=1;jettySize=auto;html=1;entryX=0;entryY=0.5;entryDx=0;entryDy=0;strokeWidth=2;strokeColor=#6c8ebf;fillColor=#dae8fc;exitX=1;exitY=0.5;exitDx=0;exitDy=0;" parent="Zo5mWJ4MHcHmz8Afzjk7-1" source="Zo5mWJ4MHcHmz8Afzjk7-8" target="Zo5mWJ4MHcHmz8Afzjk7-10" edge="1">
          <mxGeometry relative="1" as="geometry" />
        </mxCell>
        <mxCell id="Zo5mWJ4MHcHmz8Afzjk7-8" value="ACE" style="image;html=1;image=img/lib/clip_art/computers/Virtual_Application_128x128.png" parent="Zo5mWJ4MHcHmz8Afzjk7-1" vertex="1">
          <mxGeometry x="90" y="-760" width="80" height="80" as="geometry" />
        </mxCell>
        <mxCell id="Zo5mWJ4MHcHmz8Afzjk7-10" value="MQ" style="image;html=1;image=img/lib/clip_art/computers/Virtual_Application_128x128.png" parent="Zo5mWJ4MHcHmz8Afzjk7-1" vertex="1">
          <mxGeometry x="460" y="-540" width="80" height="80" as="geometry" />
        </mxCell>
        <mxCell id="Zo5mWJ4MHcHmz8Afzjk7-12" value="MQ" style="image;html=1;image=img/lib/clip_art/computers/Virtual_Application_128x128.png" parent="Zo5mWJ4MHcHmz8Afzjk7-1" vertex="1">
          <mxGeometry x="90" y="-540" width="80" height="80" as="geometry" />
        </mxCell>
        <mxCell id="Zo5mWJ4MHcHmz8Afzjk7-13" style="edgeStyle=orthogonalEdgeStyle;rounded=0;jumpStyle=arc;orthogonalLoop=1;jettySize=auto;html=1;entryX=1;entryY=0.5;entryDx=0;entryDy=0;strokeWidth=2;exitX=1;exitY=0.5;exitDx=0;exitDy=0;fillColor=#dae8fc;strokeColor=#6c8ebf;" parent="Zo5mWJ4MHcHmz8Afzjk7-1" source="Zo5mWJ4MHcHmz8Afzjk7-8" target="Zo5mWJ4MHcHmz8Afzjk7-12" edge="1">
          <mxGeometry relative="1" as="geometry">
            <Array as="points">
              <mxPoint x="230" y="-720" />
              <mxPoint x="230" y="-500" />
            </Array>
          </mxGeometry>
        </mxCell>
        <mxCell id="Zo5mWJ4MHcHmz8Afzjk7-15" style="edgeStyle=orthogonalEdgeStyle;rounded=0;jumpStyle=arc;orthogonalLoop=1;jettySize=auto;html=1;entryX=0;entryY=0.5;entryDx=0;entryDy=0;strokeWidth=2;fillColor=#dae8fc;strokeColor=#6c8ebf;exitX=0;exitY=0.5;exitDx=0;exitDy=0;" parent="Zo5mWJ4MHcHmz8Afzjk7-1" source="Zo5mWJ4MHcHmz8Afzjk7-4" target="Zo5mWJ4MHcHmz8Afzjk7-10" edge="1">
          <mxGeometry relative="1" as="geometry">
            <Array as="points">
              <mxPoint x="390" y="-720" />
              <mxPoint x="390" y="-500" />
            </Array>
          </mxGeometry>
        </mxCell>
        <mxCell id="KVuFHlpuSOtRk1IcLa1e-0" style="rounded=0;jumpStyle=arc;orthogonalLoop=1;jettySize=auto;html=1;strokeWidth=2;entryX=0.5;entryY=0;entryDx=0;entryDy=0;" parent="Zo5mWJ4MHcHmz8Afzjk7-1" source="KVuFHlpuSOtRk1IcLa1e-2" edge="1">
          <mxGeometry relative="1" as="geometry">
            <mxPoint x="276.0139442231075" y="-891" as="sourcePoint" />
            <mxPoint x="145" y="-800" as="targetPoint" />
          </mxGeometry>
        </mxCell>
        <mxCell id="KVuFHlpuSOtRk1IcLa1e-1" style="rounded=0;jumpStyle=arc;orthogonalLoop=1;jettySize=auto;html=1;entryX=0.5;entryY=0;entryDx=0;entryDy=0;strokeWidth=2;" parent="Zo5mWJ4MHcHmz8Afzjk7-1" source="KVuFHlpuSOtRk1IcLa1e-2" edge="1">
          <mxGeometry relative="1" as="geometry">
            <mxPoint x="393.0258964143427" y="-891" as="sourcePoint" />
            <mxPoint x="495" y="-800" as="targetPoint" />
          </mxGeometry>
        </mxCell>
        <mxCell id="KVuFHlpuSOtRk1IcLa1e-2" value="" style="fontColor=#0066CC;verticalAlign=top;verticalLabelPosition=bottom;labelPosition=center;align=center;html=1;outlineConnect=0;fillColor=#CCCCCC;strokeColor=#6881B3;gradientColor=none;gradientDirection=north;strokeWidth=2;shape=mxgraph.networks.load_balancer;dashed=1;" parent="Zo5mWJ4MHcHmz8Afzjk7-1" vertex="1">
          <mxGeometry x="225" y="-940" width="210" height="60" as="geometry" />
        </mxCell>
        <mxCell id="aoNYPMQQZWUo_oDLpIYz-0" value="Key topics&lt;br style=&quot;border-color: var(--border-color);&quot;&gt;--------------&lt;br&gt;More complex&lt;br&gt;&lt;br&gt;ACE and MQ in client mode&lt;br&gt;&lt;span style=&quot;&quot;&gt;&lt;/span&gt;&lt;span style=&quot;&quot;&gt;&lt;/span&gt;&lt;span style=&quot;&quot;&gt;&lt;/span&gt;&lt;span style=&quot;&quot;&gt;&lt;/span&gt;&amp;nbsp;- connection needs to be via secured channel&lt;br&gt;&amp;nbsp;- ace can connect via host pool or ccdt or vip for failover, preference can be set for the local qmgr&lt;br&gt;&lt;br&gt;Full HA ACE and MQ, no failovers&lt;br&gt;&amp;nbsp;- Double deploy and configuration for ACE and MQ&lt;br&gt;&amp;nbsp;- other server needs to handle double capacity&lt;br&gt;&lt;br&gt;Loadbalancer can round-robin. If MQ also exposed via LB it needs to follow the failovers for both instances&lt;br&gt;&lt;br&gt;Licences for both instances are required&lt;br&gt;&lt;br&gt;Two qmgrs for 2 ace instances, so message order can be tricky here. Depending on the setup&lt;br&gt;&lt;br&gt;Upgrades can be performed when required&lt;br&gt;&lt;br&gt;Thoughts&lt;br style=&quot;border-color: var(--border-color);&quot;&gt;-------------&lt;br style=&quot;border-color: var(--border-color);&quot;&gt;Each ACE server can and should favor the local qmgr, and will only connect to the other one in case that one qmgr is down. As long as this is the case, message order can be guaranteed. With the exception for multiple calls coming in via the loadbalancer (REST api and stuff)&lt;br&gt;&lt;br&gt;If one server goes down, the other needs to be scaled to run double the wokrload&lt;br&gt;&lt;br&gt;There is no automatic mq message replication between the different qmgrs.&lt;br&gt;&lt;br&gt;&lt;br&gt;Conclusion&lt;br&gt;---------------&lt;br&gt;Double capacity&lt;br&gt;&lt;br&gt;No standard message order guarantee&lt;br&gt;&lt;br&gt;No automatic message recovery (except persistent messages after restore)&lt;br&gt;&lt;br&gt;Loose coupling between ACE and MQ brings extra security" style="text;html=1;strokeColor=none;fillColor=none;align=left;verticalAlign=top;whiteSpace=wrap;rounded=0;dashed=1;" parent="Zo5mWJ4MHcHmz8Afzjk7-1" vertex="1">
          <mxGeometry x="630" y="-930" width="640" height="640" as="geometry" />
        </mxCell>
        <mxCell id="-9Uu9FhvYjleplQCrIGS-0" value="Dual Active ACE &amp;amp; &lt;font color=&quot;#cc0000&quot;&gt;Dual Active&lt;/font&gt; MQ" style="text;html=1;strokeColor=#d79b00;fillColor=#ffe6cc;align=center;verticalAlign=middle;whiteSpace=wrap;rounded=0;fontSize=27;" vertex="1" parent="Zo5mWJ4MHcHmz8Afzjk7-1">
          <mxGeometry x="40" y="-1060" width="750" height="60" as="geometry" />
        </mxCell>
      </root>
    </mxGraphModel>
  </diagram>
  <diagram name="DA ACE &amp; DA MQ Cluster" id="I4AnZ01CvOzUIX9dZ6BT">
    <mxGraphModel dx="2074" dy="2304" grid="1" gridSize="10" guides="1" tooltips="1" connect="1" arrows="1" fold="1" page="1" pageScale="1" pageWidth="850" pageHeight="1100" math="0" shadow="0">
      <root>
        <mxCell id="Gm8xRSFlvOajdeJ6kjue-0" />
        <mxCell id="Gm8xRSFlvOajdeJ6kjue-1" parent="Gm8xRSFlvOajdeJ6kjue-0" />
        <mxCell id="Gm8xRSFlvOajdeJ6kjue-2" value="SERVER 1" style="rounded=1;whiteSpace=wrap;html=1;verticalAlign=top;" parent="Gm8xRSFlvOajdeJ6kjue-1" vertex="1">
          <mxGeometry x="70" y="-800" width="140" height="410" as="geometry" />
        </mxCell>
        <mxCell id="Gm8xRSFlvOajdeJ6kjue-3" value="SERVER 2" style="rounded=1;whiteSpace=wrap;html=1;verticalAlign=top;" parent="Gm8xRSFlvOajdeJ6kjue-1" vertex="1">
          <mxGeometry x="420" y="-800" width="140" height="400" as="geometry" />
        </mxCell>
        <mxCell id="Gm8xRSFlvOajdeJ6kjue-4" value="MQ Cluster" style="rounded=1;whiteSpace=wrap;html=1;dashed=1;fillColor=none;strokeColor=#b85450;verticalAlign=top;" parent="Gm8xRSFlvOajdeJ6kjue-1" vertex="1">
          <mxGeometry x="80" y="-540" width="470" height="120" as="geometry" />
        </mxCell>
        <mxCell id="Gm8xRSFlvOajdeJ6kjue-5" value="ACE" style="image;html=1;image=img/lib/clip_art/computers/Virtual_Application_128x128.png" parent="Gm8xRSFlvOajdeJ6kjue-1" vertex="1">
          <mxGeometry x="460" y="-760" width="80" height="80" as="geometry" />
        </mxCell>
        <mxCell id="Gm8xRSFlvOajdeJ6kjue-9" value="ACE" style="image;html=1;image=img/lib/clip_art/computers/Virtual_Application_128x128.png" parent="Gm8xRSFlvOajdeJ6kjue-1" vertex="1">
          <mxGeometry x="90" y="-760" width="80" height="80" as="geometry" />
        </mxCell>
        <mxCell id="Gm8xRSFlvOajdeJ6kjue-10" value="MQ" style="image;html=1;image=img/lib/clip_art/computers/Virtual_Application_128x128.png" parent="Gm8xRSFlvOajdeJ6kjue-1" vertex="1">
          <mxGeometry x="460" y="-540" width="80" height="80" as="geometry" />
        </mxCell>
        <mxCell id="Gm8xRSFlvOajdeJ6kjue-11" value="MQ" style="image;html=1;image=img/lib/clip_art/computers/Virtual_Application_128x128.png" parent="Gm8xRSFlvOajdeJ6kjue-1" vertex="1">
          <mxGeometry x="90" y="-540" width="80" height="80" as="geometry" />
        </mxCell>
        <mxCell id="Gm8xRSFlvOajdeJ6kjue-12" style="rounded=0;jumpStyle=arc;orthogonalLoop=1;jettySize=auto;html=1;entryX=1;entryY=0.5;entryDx=0;entryDy=0;strokeWidth=2;exitX=1;exitY=0.5;exitDx=0;exitDy=0;fillColor=#dae8fc;strokeColor=#6c8ebf;" parent="Gm8xRSFlvOajdeJ6kjue-1" source="Gm8xRSFlvOajdeJ6kjue-9" target="Gm8xRSFlvOajdeJ6kjue-11" edge="1">
          <mxGeometry relative="1" as="geometry">
            <Array as="points">
              <mxPoint x="250" y="-620" />
            </Array>
          </mxGeometry>
        </mxCell>
        <mxCell id="Gm8xRSFlvOajdeJ6kjue-13" style="rounded=0;jumpStyle=arc;orthogonalLoop=1;jettySize=auto;html=1;entryX=0;entryY=0.5;entryDx=0;entryDy=0;strokeWidth=2;fillColor=#60a917;strokeColor=#2D7600;exitX=0;exitY=0.5;exitDx=0;exitDy=0;" parent="Gm8xRSFlvOajdeJ6kjue-1" source="Gm8xRSFlvOajdeJ6kjue-5" target="Gm8xRSFlvOajdeJ6kjue-10" edge="1">
          <mxGeometry relative="1" as="geometry">
            <Array as="points">
              <mxPoint x="370" y="-620" />
            </Array>
          </mxGeometry>
        </mxCell>
        <mxCell id="blaBDodLXNKnDOR-DUyC-0" style="rounded=0;jumpStyle=arc;orthogonalLoop=1;jettySize=auto;html=1;strokeWidth=2;entryX=0.5;entryY=0;entryDx=0;entryDy=0;" parent="Gm8xRSFlvOajdeJ6kjue-1" source="blaBDodLXNKnDOR-DUyC-2" edge="1">
          <mxGeometry relative="1" as="geometry">
            <mxPoint x="276.0139442231075" y="-891" as="sourcePoint" />
            <mxPoint x="145" y="-800" as="targetPoint" />
          </mxGeometry>
        </mxCell>
        <mxCell id="blaBDodLXNKnDOR-DUyC-1" style="rounded=0;jumpStyle=arc;orthogonalLoop=1;jettySize=auto;html=1;entryX=0.5;entryY=0;entryDx=0;entryDy=0;strokeWidth=2;" parent="Gm8xRSFlvOajdeJ6kjue-1" source="blaBDodLXNKnDOR-DUyC-2" edge="1">
          <mxGeometry relative="1" as="geometry">
            <mxPoint x="393.0258964143427" y="-891" as="sourcePoint" />
            <mxPoint x="495" y="-800" as="targetPoint" />
          </mxGeometry>
        </mxCell>
        <mxCell id="blaBDodLXNKnDOR-DUyC-2" value="" style="fontColor=#0066CC;verticalAlign=top;verticalLabelPosition=bottom;labelPosition=center;align=center;html=1;outlineConnect=0;fillColor=#CCCCCC;strokeColor=#6881B3;gradientColor=none;gradientDirection=north;strokeWidth=2;shape=mxgraph.networks.load_balancer;dashed=1;" parent="Gm8xRSFlvOajdeJ6kjue-1" vertex="1">
          <mxGeometry x="225" y="-940" width="210" height="60" as="geometry" />
        </mxCell>
        <mxCell id="a3vhB8FPJiGDoQT5JtRP-0" value="Dual Active ACE &amp;amp; Dual Active MQ &lt;font color=&quot;#cc0000&quot;&gt;Cluster&lt;/font&gt;" style="text;html=1;strokeColor=#d79b00;fillColor=#ffe6cc;align=center;verticalAlign=middle;whiteSpace=wrap;rounded=0;fontSize=27;" vertex="1" parent="Gm8xRSFlvOajdeJ6kjue-1">
          <mxGeometry x="50" y="-1060" width="750" height="60" as="geometry" />
        </mxCell>
        <mxCell id="VhZo2rUdhavDPC_hCmV5-0" value="Key topics&lt;br style=&quot;border-color: var(--border-color);&quot;&gt;--------------&lt;br&gt;More complex&lt;br&gt;&lt;br&gt;ACE and MQ in client mode&lt;br&gt;&lt;span style=&quot;&quot;&gt;&lt;/span&gt;&lt;span style=&quot;&quot;&gt;&lt;/span&gt;&lt;span style=&quot;&quot;&gt;&lt;/span&gt;&lt;span style=&quot;&quot;&gt;&lt;/span&gt;&amp;nbsp;- connection needs to be via secured channel&lt;br&gt;&amp;nbsp;- ace can connect via host pool or ccdt or vip for failover, preference can be set for the local qmgr&lt;br&gt;&amp;nbsp;- ACE can also connect to MQ in binding mode.&lt;br&gt;&lt;br&gt;Full HA ACE and MQ, no failovers&lt;br&gt;&amp;nbsp;- Double deploy and configuration for ACE and MQ&lt;br&gt;&amp;nbsp;- other server needs to handle double capacity&lt;br&gt;&lt;br&gt;Loadbalancer can round-robin. If MQ also exposed via LB it needs to follow the failovers for both instances&lt;br&gt;&lt;br&gt;Licences for both instances are required&lt;br&gt;&lt;br&gt;Each ACE instance connects to only 1 qmgr. By clustering queues, you only have 1 copy that holds all the data.&lt;br style=&quot;border-color: var(--border-color);&quot;&gt;This can help guarantee message order. You can also keep queues local this not exposing them to the other ACE instance. If a queue is clustered, but fysically present on the instance that goes down, the message will be bufferend until mq comes up gain.&lt;br&gt;Messages that were present on the crashed qmgr wil only become available after restore (if they were persistent)&lt;br&gt;&lt;br&gt;Upgrades can be performed whenever requried&lt;br&gt;&lt;br&gt;&lt;br&gt;Thoughts&lt;br style=&quot;border-color: var(--border-color);&quot;&gt;-------------&lt;br style=&quot;border-color: var(--border-color);&quot;&gt;Each ACE server can and should favor the local qmgr, and will only connect to the other one in case that one qmgr is down. As long as this is the case, message order can be guaranteed. With the exception for multiple calls coming in via the loadbalancer (REST api and stuff)&lt;br&gt;For messages that need guaranteed order, you can have one cluster queue, then whataver ace instance reads it will read in order from the queue.&lt;br&gt;&lt;br&gt;If one server goes down, the other needs to be scaled to run double the wokrload&lt;br&gt;&lt;br&gt;There is no automatic mq message replication between the different qmgrs. Messages on local queues will be unavailable for a qmgr that crashed until it is brought up again&lt;br&gt;&lt;br&gt;&lt;br&gt;Conclusion&lt;br&gt;---------------&lt;br&gt;Double capacity&lt;br&gt;&lt;br&gt;No standard message order guarantee, can be achieved with clustering&lt;br&gt;&lt;br&gt;No automatic message recovery (except persistent messages after restore)&lt;br&gt;&lt;br&gt;Loose coupling between ACE and MQ brings extra security&lt;br&gt;Direct connection between ACE and MQ is easier to configure" style="text;html=1;strokeColor=none;fillColor=none;align=left;verticalAlign=top;whiteSpace=wrap;rounded=0;dashed=1;" vertex="1" parent="Gm8xRSFlvOajdeJ6kjue-1">
          <mxGeometry x="660" y="-940" width="640" height="640" as="geometry" />
        </mxCell>
        <mxCell id="Xwi-SsgeqBX-5fyXr7oQ-0" style="rounded=0;orthogonalLoop=1;jettySize=auto;html=1;entryX=0;entryY=0.5;entryDx=0;entryDy=0;strokeWidth=2;fillColor=#dae8fc;strokeColor=#6c8ebf;dashed=1;jumpStyle=arc;exitX=1;exitY=0.5;exitDx=0;exitDy=0;" edge="1" parent="Gm8xRSFlvOajdeJ6kjue-1" source="Gm8xRSFlvOajdeJ6kjue-9" target="Gm8xRSFlvOajdeJ6kjue-10">
          <mxGeometry relative="1" as="geometry">
            <mxPoint x="140" y="-693" as="sourcePoint" />
            <mxPoint x="430" y="-500" as="targetPoint" />
          </mxGeometry>
        </mxCell>
        <mxCell id="Xwi-SsgeqBX-5fyXr7oQ-1" style="rounded=0;orthogonalLoop=1;jettySize=auto;html=1;entryX=1;entryY=0.5;entryDx=0;entryDy=0;strokeWidth=2;fillColor=#60a917;strokeColor=#2D7600;dashed=1;jumpStyle=arc;exitX=0;exitY=0.5;exitDx=0;exitDy=0;" edge="1" parent="Gm8xRSFlvOajdeJ6kjue-1" source="Gm8xRSFlvOajdeJ6kjue-5" target="Gm8xRSFlvOajdeJ6kjue-11">
          <mxGeometry relative="1" as="geometry">
            <mxPoint x="150" y="-683" as="sourcePoint" />
            <mxPoint x="440" y="-490" as="targetPoint" />
          </mxGeometry>
        </mxCell>
      </root>
    </mxGraphModel>
  </diagram>
  <diagram name="DA ACE &amp; DA MQ Cluster additional qmgr" id="xsW1Hp91uu6vtXSGwBwk">
    <mxGraphModel dx="2074" dy="2304" grid="1" gridSize="10" guides="1" tooltips="1" connect="1" arrows="1" fold="1" page="1" pageScale="1" pageWidth="850" pageHeight="1100" math="0" shadow="0">
      <root>
        <mxCell id="2tT1dM4sKyXa_7D5IImd-0" />
        <mxCell id="2tT1dM4sKyXa_7D5IImd-1" parent="2tT1dM4sKyXa_7D5IImd-0" />
        <mxCell id="1OhVkuyPA4WFubjQ9ghM-0" value="SERVER 3" style="rounded=1;whiteSpace=wrap;html=1;verticalAlign=top;" parent="2tT1dM4sKyXa_7D5IImd-1" vertex="1">
          <mxGeometry x="205" y="-530" width="140" height="180" as="geometry" />
        </mxCell>
        <mxCell id="2tT1dM4sKyXa_7D5IImd-2" value="SERVER 1" style="rounded=1;whiteSpace=wrap;html=1;verticalAlign=top;" parent="2tT1dM4sKyXa_7D5IImd-1" vertex="1">
          <mxGeometry x="30" y="-810" width="140" height="410" as="geometry" />
        </mxCell>
        <mxCell id="2tT1dM4sKyXa_7D5IImd-3" value="SERVER 2" style="rounded=1;whiteSpace=wrap;html=1;verticalAlign=top;" parent="2tT1dM4sKyXa_7D5IImd-1" vertex="1">
          <mxGeometry x="380" y="-810" width="140" height="400" as="geometry" />
        </mxCell>
        <mxCell id="2tT1dM4sKyXa_7D5IImd-4" value="MQ Cluster" style="rounded=1;whiteSpace=wrap;html=1;dashed=1;fillColor=none;strokeColor=#b85450;verticalAlign=top;" parent="2tT1dM4sKyXa_7D5IImd-1" vertex="1">
          <mxGeometry x="40" y="-550" width="470" height="170" as="geometry" />
        </mxCell>
        <mxCell id="2tT1dM4sKyXa_7D5IImd-5" value="ACE" style="image;html=1;image=img/lib/clip_art/computers/Virtual_Application_128x128.png" parent="2tT1dM4sKyXa_7D5IImd-1" vertex="1">
          <mxGeometry x="420" y="-770" width="80" height="80" as="geometry" />
        </mxCell>
        <mxCell id="2tT1dM4sKyXa_7D5IImd-6" value="ACE" style="image;html=1;image=img/lib/clip_art/computers/Virtual_Application_128x128.png" parent="2tT1dM4sKyXa_7D5IImd-1" vertex="1">
          <mxGeometry x="50" y="-770" width="80" height="80" as="geometry" />
        </mxCell>
        <mxCell id="2tT1dM4sKyXa_7D5IImd-7" value="MQ" style="image;html=1;image=img/lib/clip_art/computers/Virtual_Application_128x128.png" parent="2tT1dM4sKyXa_7D5IImd-1" vertex="1">
          <mxGeometry x="420" y="-550" width="80" height="80" as="geometry" />
        </mxCell>
        <mxCell id="2tT1dM4sKyXa_7D5IImd-8" value="MQ" style="image;html=1;image=img/lib/clip_art/computers/Virtual_Application_128x128.png" parent="2tT1dM4sKyXa_7D5IImd-1" vertex="1">
          <mxGeometry x="50" y="-550" width="80" height="80" as="geometry" />
        </mxCell>
        <mxCell id="2tT1dM4sKyXa_7D5IImd-9" style="rounded=0;jumpStyle=arc;orthogonalLoop=1;jettySize=auto;html=1;entryX=1;entryY=0.5;entryDx=0;entryDy=0;strokeWidth=2;exitX=1;exitY=0.5;exitDx=0;exitDy=0;fillColor=#dae8fc;strokeColor=#6c8ebf;edgeStyle=orthogonalEdgeStyle;" parent="2tT1dM4sKyXa_7D5IImd-1" source="2tT1dM4sKyXa_7D5IImd-6" target="2tT1dM4sKyXa_7D5IImd-8" edge="1">
          <mxGeometry relative="1" as="geometry" />
        </mxCell>
        <mxCell id="2tT1dM4sKyXa_7D5IImd-10" style="rounded=0;jumpStyle=arc;orthogonalLoop=1;jettySize=auto;html=1;strokeWidth=2;fillColor=#dae8fc;strokeColor=#6c8ebf;exitX=0;exitY=0.5;exitDx=0;exitDy=0;edgeStyle=orthogonalEdgeStyle;entryX=0;entryY=0.5;entryDx=0;entryDy=0;" parent="2tT1dM4sKyXa_7D5IImd-1" source="2tT1dM4sKyXa_7D5IImd-5" target="2tT1dM4sKyXa_7D5IImd-7" edge="1">
          <mxGeometry relative="1" as="geometry" />
        </mxCell>
        <mxCell id="2tT1dM4sKyXa_7D5IImd-11" style="rounded=0;jumpStyle=arc;orthogonalLoop=1;jettySize=auto;html=1;strokeWidth=2;entryX=0.5;entryY=0;entryDx=0;entryDy=0;" parent="2tT1dM4sKyXa_7D5IImd-1" source="2tT1dM4sKyXa_7D5IImd-13" edge="1">
          <mxGeometry relative="1" as="geometry">
            <mxPoint x="236.0139442231075" y="-901" as="sourcePoint" />
            <mxPoint x="105" y="-810" as="targetPoint" />
          </mxGeometry>
        </mxCell>
        <mxCell id="2tT1dM4sKyXa_7D5IImd-12" style="rounded=0;jumpStyle=arc;orthogonalLoop=1;jettySize=auto;html=1;entryX=0.5;entryY=0;entryDx=0;entryDy=0;strokeWidth=2;" parent="2tT1dM4sKyXa_7D5IImd-1" source="2tT1dM4sKyXa_7D5IImd-13" edge="1">
          <mxGeometry relative="1" as="geometry">
            <mxPoint x="353.0258964143427" y="-901" as="sourcePoint" />
            <mxPoint x="455" y="-810" as="targetPoint" />
          </mxGeometry>
        </mxCell>
        <mxCell id="1OhVkuyPA4WFubjQ9ghM-1" value="MQ" style="image;html=1;image=img/lib/clip_art/computers/Virtual_Application_128x128.png" parent="2tT1dM4sKyXa_7D5IImd-1" vertex="1">
          <mxGeometry x="235" y="-500" width="80" height="80" as="geometry" />
        </mxCell>
        <mxCell id="2tT1dM4sKyXa_7D5IImd-13" value="" style="fontColor=#0066CC;verticalAlign=top;verticalLabelPosition=bottom;labelPosition=center;align=center;html=1;outlineConnect=0;fillColor=#CCCCCC;strokeColor=#6881B3;gradientColor=none;gradientDirection=north;strokeWidth=2;shape=mxgraph.networks.load_balancer;dashed=1;" parent="2tT1dM4sKyXa_7D5IImd-1" vertex="1">
          <mxGeometry x="185" y="-950" width="210" height="60" as="geometry" />
        </mxCell>
        <mxCell id="n1LmOfGOGEN5RRSBqi92-0" value="Dual Active ACE &amp;amp; Dual Active MQ Cluster &lt;font color=&quot;#cc0000&quot;&gt;Additional QMGR&lt;/font&gt;" style="text;html=1;strokeColor=#d79b00;fillColor=#ffe6cc;align=center;verticalAlign=middle;whiteSpace=wrap;rounded=0;fontSize=27;" vertex="1" parent="2tT1dM4sKyXa_7D5IImd-1">
          <mxGeometry x="30" y="-1060" width="750" height="60" as="geometry" />
        </mxCell>
        <mxCell id="5RDvoBluFntB9THxaEh4-0" value="Key topics&lt;br style=&quot;border-color: var(--border-color);&quot;&gt;--------------&lt;br&gt;Additional qmgr that contains all the actual queues&lt;br&gt;&lt;br&gt;All queues are clustered but crewated on #3&lt;br&gt;&lt;br&gt;ACE is running in binding or client mode, doesn&#39;t make a difference here.&lt;br&gt;&lt;br&gt;Thoughts&lt;br style=&quot;border-color: var(--border-color);&quot;&gt;-------------&lt;br style=&quot;border-color: var(--border-color);&quot;&gt;Additional licenses are required for MQ #3&lt;br&gt;&lt;br&gt;&lt;br&gt;&lt;br&gt;&lt;br&gt;Conclusion&lt;br&gt;---------------&lt;br&gt;All queues only have one instance and are located on #3&lt;br&gt;&lt;br&gt;The other qmgrs are there as pass-though instances&lt;br&gt;&lt;br&gt;All flows are basically working als flows with additional instances, if there are 2 message on a queue, it is highly likely that both ACE instances process 1 message&lt;br&gt;&lt;br&gt;If Server 3 goes down, no message will be read and written messages will be buffered on transmit queues" style="text;html=1;strokeColor=none;fillColor=none;align=left;verticalAlign=top;whiteSpace=wrap;rounded=0;dashed=1;" vertex="1" parent="2tT1dM4sKyXa_7D5IImd-1">
          <mxGeometry x="610" y="-950" width="640" height="640" as="geometry" />
        </mxCell>
      </root>
    </mxGraphModel>
  </diagram>
  <diagram name=" DA ACE &amp; DA MQ Cluster additional qmgr MI" id="Z71mVM55fN-8KqNR7HlC">
    <mxGraphModel dx="2074" dy="2304" grid="1" gridSize="10" guides="1" tooltips="1" connect="1" arrows="1" fold="1" page="1" pageScale="1" pageWidth="850" pageHeight="1100" math="0" shadow="0">
      <root>
        <mxCell id="dgbp1G5LAifhnVhxFn8W-0" />
        <mxCell id="dgbp1G5LAifhnVhxFn8W-1" parent="dgbp1G5LAifhnVhxFn8W-0" />
        <mxCell id="dgbp1G5LAifhnVhxFn8W-2" value="SERVER 3" style="rounded=1;whiteSpace=wrap;html=1;verticalAlign=top;" parent="dgbp1G5LAifhnVhxFn8W-1" vertex="1">
          <mxGeometry x="235" y="-530" width="140" height="180" as="geometry" />
        </mxCell>
        <mxCell id="KiHedd0eL17MeOA75nQT-1" style="edgeStyle=orthogonalEdgeStyle;rounded=0;jumpStyle=arc;orthogonalLoop=1;jettySize=auto;html=1;entryX=0.5;entryY=0;entryDx=0;entryDy=0;entryPerimeter=0;strokeWidth=2;" parent="dgbp1G5LAifhnVhxFn8W-1" source="7Hu4mPijl3rhiDizoykc-0" target="KiHedd0eL17MeOA75nQT-0" edge="1">
          <mxGeometry relative="1" as="geometry" />
        </mxCell>
        <mxCell id="7Hu4mPijl3rhiDizoykc-0" value="Instance 1" style="rounded=1;whiteSpace=wrap;html=1;verticalAlign=top;" parent="dgbp1G5LAifhnVhxFn8W-1" vertex="1">
          <mxGeometry x="245" y="-500" width="120" height="140" as="geometry" />
        </mxCell>
        <mxCell id="dgbp1G5LAifhnVhxFn8W-3" value="SERVER 1" style="rounded=1;whiteSpace=wrap;html=1;verticalAlign=top;" parent="dgbp1G5LAifhnVhxFn8W-1" vertex="1">
          <mxGeometry x="60" y="-810" width="140" height="410" as="geometry" />
        </mxCell>
        <mxCell id="dgbp1G5LAifhnVhxFn8W-4" value="SERVER 2" style="rounded=1;whiteSpace=wrap;html=1;verticalAlign=top;" parent="dgbp1G5LAifhnVhxFn8W-1" vertex="1">
          <mxGeometry x="410" y="-810" width="140" height="400" as="geometry" />
        </mxCell>
        <mxCell id="dgbp1G5LAifhnVhxFn8W-5" value="MQ Cluster" style="rounded=1;whiteSpace=wrap;html=1;dashed=1;fillColor=none;strokeColor=#b85450;verticalAlign=top;" parent="dgbp1G5LAifhnVhxFn8W-1" vertex="1">
          <mxGeometry x="70" y="-570" width="470" height="580" as="geometry" />
        </mxCell>
        <mxCell id="dgbp1G5LAifhnVhxFn8W-6" value="ACE" style="image;html=1;image=img/lib/clip_art/computers/Virtual_Application_128x128.png" parent="dgbp1G5LAifhnVhxFn8W-1" vertex="1">
          <mxGeometry x="450" y="-770" width="80" height="80" as="geometry" />
        </mxCell>
        <mxCell id="dgbp1G5LAifhnVhxFn8W-7" value="ACE" style="image;html=1;image=img/lib/clip_art/computers/Virtual_Application_128x128.png" parent="dgbp1G5LAifhnVhxFn8W-1" vertex="1">
          <mxGeometry x="80" y="-770" width="80" height="80" as="geometry" />
        </mxCell>
        <mxCell id="dgbp1G5LAifhnVhxFn8W-8" value="MQ" style="image;html=1;image=img/lib/clip_art/computers/Virtual_Application_128x128.png" parent="dgbp1G5LAifhnVhxFn8W-1" vertex="1">
          <mxGeometry x="450" y="-550" width="80" height="80" as="geometry" />
        </mxCell>
        <mxCell id="dgbp1G5LAifhnVhxFn8W-9" value="MQ" style="image;html=1;image=img/lib/clip_art/computers/Virtual_Application_128x128.png" parent="dgbp1G5LAifhnVhxFn8W-1" vertex="1">
          <mxGeometry x="80" y="-550" width="80" height="80" as="geometry" />
        </mxCell>
        <mxCell id="dgbp1G5LAifhnVhxFn8W-10" style="rounded=0;jumpStyle=arc;orthogonalLoop=1;jettySize=auto;html=1;entryX=1;entryY=0.5;entryDx=0;entryDy=0;strokeWidth=2;exitX=1;exitY=0.5;exitDx=0;exitDy=0;fillColor=#dae8fc;strokeColor=#6c8ebf;edgeStyle=orthogonalEdgeStyle;" parent="dgbp1G5LAifhnVhxFn8W-1" source="dgbp1G5LAifhnVhxFn8W-7" target="dgbp1G5LAifhnVhxFn8W-9" edge="1">
          <mxGeometry relative="1" as="geometry" />
        </mxCell>
        <mxCell id="dgbp1G5LAifhnVhxFn8W-11" style="rounded=0;jumpStyle=arc;orthogonalLoop=1;jettySize=auto;html=1;strokeWidth=2;fillColor=#dae8fc;strokeColor=#6c8ebf;exitX=0;exitY=0.5;exitDx=0;exitDy=0;edgeStyle=orthogonalEdgeStyle;entryX=0;entryY=0.5;entryDx=0;entryDy=0;" parent="dgbp1G5LAifhnVhxFn8W-1" source="dgbp1G5LAifhnVhxFn8W-6" target="dgbp1G5LAifhnVhxFn8W-8" edge="1">
          <mxGeometry relative="1" as="geometry" />
        </mxCell>
        <mxCell id="dgbp1G5LAifhnVhxFn8W-12" style="rounded=0;jumpStyle=arc;orthogonalLoop=1;jettySize=auto;html=1;strokeWidth=2;entryX=0.5;entryY=0;entryDx=0;entryDy=0;" parent="dgbp1G5LAifhnVhxFn8W-1" source="dgbp1G5LAifhnVhxFn8W-15" edge="1">
          <mxGeometry relative="1" as="geometry">
            <mxPoint x="266.0139442231075" y="-901" as="sourcePoint" />
            <mxPoint x="135" y="-810" as="targetPoint" />
          </mxGeometry>
        </mxCell>
        <mxCell id="dgbp1G5LAifhnVhxFn8W-13" style="rounded=0;jumpStyle=arc;orthogonalLoop=1;jettySize=auto;html=1;entryX=0.5;entryY=0;entryDx=0;entryDy=0;strokeWidth=2;" parent="dgbp1G5LAifhnVhxFn8W-1" source="dgbp1G5LAifhnVhxFn8W-15" edge="1">
          <mxGeometry relative="1" as="geometry">
            <mxPoint x="383.0258964143427" y="-901" as="sourcePoint" />
            <mxPoint x="485" y="-810" as="targetPoint" />
          </mxGeometry>
        </mxCell>
        <mxCell id="dgbp1G5LAifhnVhxFn8W-14" value="MQ" style="image;html=1;image=img/lib/clip_art/computers/Virtual_Application_128x128.png" parent="dgbp1G5LAifhnVhxFn8W-1" vertex="1">
          <mxGeometry x="265" y="-480" width="80" height="80" as="geometry" />
        </mxCell>
        <mxCell id="dgbp1G5LAifhnVhxFn8W-15" value="" style="fontColor=#0066CC;verticalAlign=top;verticalLabelPosition=bottom;labelPosition=center;align=center;html=1;outlineConnect=0;fillColor=#CCCCCC;strokeColor=#6881B3;gradientColor=none;gradientDirection=north;strokeWidth=2;shape=mxgraph.networks.load_balancer;dashed=1;" parent="dgbp1G5LAifhnVhxFn8W-1" vertex="1">
          <mxGeometry x="215" y="-950" width="210" height="60" as="geometry" />
        </mxCell>
        <mxCell id="7Hu4mPijl3rhiDizoykc-1" value="SERVER 4" style="rounded=1;whiteSpace=wrap;html=1;verticalAlign=top;" parent="dgbp1G5LAifhnVhxFn8W-1" vertex="1">
          <mxGeometry x="235" y="-190" width="140" height="180" as="geometry" />
        </mxCell>
        <mxCell id="KiHedd0eL17MeOA75nQT-2" style="edgeStyle=orthogonalEdgeStyle;rounded=0;jumpStyle=arc;orthogonalLoop=1;jettySize=auto;html=1;entryX=0.5;entryY=1;entryDx=0;entryDy=0;entryPerimeter=0;strokeWidth=2;" parent="dgbp1G5LAifhnVhxFn8W-1" source="7Hu4mPijl3rhiDizoykc-2" target="KiHedd0eL17MeOA75nQT-0" edge="1">
          <mxGeometry relative="1" as="geometry" />
        </mxCell>
        <mxCell id="7Hu4mPijl3rhiDizoykc-2" value="Instance 1" style="rounded=1;whiteSpace=wrap;html=1;verticalAlign=top;dashed=1;" parent="dgbp1G5LAifhnVhxFn8W-1" vertex="1">
          <mxGeometry x="245" y="-160" width="120" height="140" as="geometry" />
        </mxCell>
        <mxCell id="7Hu4mPijl3rhiDizoykc-3" value="MQ" style="image;html=1;image=img/lib/clip_art/computers/Virtual_Application_128x128.png" parent="dgbp1G5LAifhnVhxFn8W-1" vertex="1">
          <mxGeometry x="265" y="-140" width="80" height="80" as="geometry" />
        </mxCell>
        <mxCell id="KiHedd0eL17MeOA75nQT-0" value="NFS / NAS" style="fontColor=#0066CC;verticalAlign=top;verticalLabelPosition=bottom;labelPosition=center;align=center;html=1;outlineConnect=0;fillColor=#CCCCCC;strokeColor=#6881B3;gradientColor=none;gradientDirection=north;strokeWidth=2;shape=mxgraph.networks.nas_filer;" parent="dgbp1G5LAifhnVhxFn8W-1" vertex="1">
          <mxGeometry x="255" y="-290" width="100" height="35" as="geometry" />
        </mxCell>
        <mxCell id="cw3tVtHddIHDdakqZ98q-0" value="Dual Active ACE &amp;amp; Dual Active MQ Cluster Additional &lt;font color=&quot;#cc0000&quot;&gt;Multi Instance&lt;/font&gt; QMGR" style="text;html=1;strokeColor=#d79b00;fillColor=#ffe6cc;align=center;verticalAlign=middle;whiteSpace=wrap;rounded=0;fontSize=27;" vertex="1" parent="dgbp1G5LAifhnVhxFn8W-1">
          <mxGeometry x="70" y="-1080" width="970" height="60" as="geometry" />
        </mxCell>
        <mxCell id="cw3tVtHddIHDdakqZ98q-1" value="Key topics&lt;br style=&quot;border-color: var(--border-color);&quot;&gt;--------------&lt;br&gt;Additional qmgr that contains all the actual queues&lt;br&gt;&lt;br&gt;All queues are clustered but crewated on #3&lt;br&gt;&lt;br&gt;ACE is running in binding or client mode, doesn&#39;t make a difference here.&lt;br&gt;&lt;br&gt;Thoughts&lt;br style=&quot;border-color: var(--border-color);&quot;&gt;-------------&lt;br style=&quot;border-color: var(--border-color);&quot;&gt;Additional licenses are required for MQ #3&lt;br&gt;&lt;br&gt;&lt;br&gt;&lt;br&gt;&lt;br&gt;Conclusion&lt;br&gt;---------------&lt;br&gt;All queues only have one instance and are located on #3&lt;br&gt;&lt;br&gt;The other qmgrs are there as pass-though instances&lt;br&gt;&lt;br&gt;All flows are basically working als flows with additional instances, if there are 2 message on a queue, it is highly likely that both ACE instances process 1 message&lt;br&gt;&lt;br&gt;If Server 3 goes down, server 4 will take over and any messages present on the queues will be available shortly" style="text;html=1;strokeColor=none;fillColor=none;align=left;verticalAlign=top;whiteSpace=wrap;rounded=0;dashed=1;" vertex="1" parent="dgbp1G5LAifhnVhxFn8W-1">
          <mxGeometry x="650" y="-970" width="640" height="640" as="geometry" />
        </mxCell>
      </root>
    </mxGraphModel>
  </diagram>
  <diagram id="-FUbcJEZ86q9RNmBNUPH" name="Cloud">
    <mxGraphModel dx="2074" dy="1204" grid="1" gridSize="10" guides="1" tooltips="1" connect="1" arrows="1" fold="1" page="1" pageScale="1" pageWidth="850" pageHeight="1100" math="0" shadow="0">
      <root>
        <mxCell id="0" />
        <mxCell id="1" parent="0" />
      </root>
    </mxGraphModel>
  </diagram>
</mxfile>
